<svg id="Groupe_14" data-name="Groupe 14" xmlns="http://www.w3.org/2000/svg" width="260.906" height="50.082" viewBox="0 0 260.906 50.082">
  <path id="Tracé_36" data-name="Tracé 36" d="M1575.933,340.415c.845,0,1.689.005,2.541.017s1.69.017,2.542.017h1.646c.528,0,1.067-.011,1.612-.033a13.552,13.552,0,0,1,1.513.067,2.174,2.174,0,0,1,.945.306,2.1,2.1,0,0,1,.65.734,10.511,10.511,0,0,1,.606,1.335q1.043,2.8,2.2,5.528t2.2,5.522q.844,2.311,1.53,4.643t1.468,4.677a12.662,12.662,0,0,0,.634,1.646c.25.528.483,1.068.7,1.613q1.3,3.287,2.558,6.529t2.558,6.5c.307.828.618,1.64.946,2.447s.672,1.6,1.039,2.375a6.768,6.768,0,0,1,.59,1.974,4.263,4.263,0,0,1-.328,2.135c-.128.044-.272.083-.423.128a1.738,1.738,0,0,1-.488.067q-2.086-.067-4.155-.178t-4.153-.211h-.634a3.244,3.244,0,0,1-.64-.067,4.062,4.062,0,0,1-1.5-.573,2,2,0,0,1-.784-1.446c-.173-.828-.355-1.641-.551-2.447s-.417-1.607-.65-2.408a3.638,3.638,0,0,0-.817-1.613,2.073,2.073,0,0,0-1.5-.473,3.328,3.328,0,0,0-.489.028q-2.086.167-4.143.456t-4.138.456c-.3.022-.606.039-.912.05s-.606.017-.912.017c-.5,0-1-.006-1.5-.017s-1.012-.017-1.535-.017c-.366,1.045-.744,2.085-1.14,3.131s-.751,2.119-1.073,3.225a2.484,2.484,0,0,1-.605,1.073,1.674,1.674,0,0,1-1.124.395c-.411.039-.822.089-1.234.145s-.828.094-1.24.111q-3.319.267-6.646.395a3.493,3.493,0,0,1-.834-.1c-.272-.067-.534-.139-.795-.228a1.154,1.154,0,0,1-.817-1.629c.172-.562.339-1.135.489-1.707a13.877,13.877,0,0,1,.556-1.679q1.109-3,2.247-5.961t2.279-5.967q1.043-2.669,2.069-5.344t2.035-5.372q1.143-3.07,2.2-6.078t2.2-6.078q.75-2.052,1.567-4.054T1575.933,340.415Zm2.347,29.457,3.647.195q1.827.1,3.81.195-1.042-3.42-2.035-6.629t-2-6.568a48.718,48.718,0,0,0-2.431,6.89A27.475,27.475,0,0,0,1578.28,369.872Z" transform="translate(-1558.564 -338.752)"/>
  <path id="Tracé_37" data-name="Tracé 37" d="M1568.074,340.411c.584-.067,1.54-.122,2.864-.161s2.83-.072,4.515-.083l5.294-.033q2.77-.016,5.25-.017h14.236c.434,0,1.063.011,1.891.033s1.752.039,2.786.05,2.107.028,3.226.05,2.185.039,3.191.061,1.913.045,2.709.067,1.362.044,1.707.067c1.218.045,2.424.128,3.62.261s2.386.278,3.581.456a10.966,10.966,0,0,1,2.119.534,16.676,16.676,0,0,0,2.118.606,5.32,5.32,0,0,1,1.452.523,7.956,7.956,0,0,1,1.234.812,12.541,12.541,0,0,1,1.106,1c.361.356.723.712,1.1,1.057a8.347,8.347,0,0,1,2.736,5.25,27.791,27.791,0,0,1,.193,3.776,21.9,21.9,0,0,1-.522,4.532,10.832,10.832,0,0,1-1.951,4.137.755.755,0,0,0-.167.356,1.525,1.525,0,0,1-.062.295,21.058,21.058,0,0,1,3.354,4.221,11.949,11.949,0,0,1,1.6,5.161,15.83,15.83,0,0,1-.6,6.017,25.288,25.288,0,0,1-2.43,5.422,2.253,2.253,0,0,1-.39.473,5.732,5.732,0,0,1-.489.406,18.133,18.133,0,0,1-4.788,2.642,15.764,15.764,0,0,1-5.41.912q-4.622.033-9.187.161t-9.22.228h-.49c-.633,0-1.251-.017-1.857-.045s-1.229-.05-1.856-.05h-1.046c-1.435,0-2.864-.005-4.3-.017s-2.87-.017-4.3-.017c-1.451,0-2.9.017-4.349.05s-2.881.1-4.315.211c-.351.022-.689.039-1.029.05s-.678.011-1.022.011c-1.263,0-2.508-.039-3.732-.128s-2.463-.128-3.7-.128c-.479,0-.945.011-1.4.028s-.924.056-1.4.1a.831.831,0,0,1-.262.033,1.968,1.968,0,0,1-.962-.228,4.085,4.085,0,0,1-.768-.556,1.8,1.8,0,0,1-.6-.778,2.5,2.5,0,0,1-.084-1.046q.36-7.1.49-14.175a16.269,16.269,0,0,0-.111-2.391,19.036,19.036,0,0,1-.15-2.4c-.021-2.519-.021-5.027-.017-7.53s.006-4.994-.011-7.491c0-1.045-.028-2.085-.084-3.131s-.062-2.085-.017-3.125c.022-.456.062-.962.111-1.518s.117-1.118.184-1.691.134-1.151.211-1.729S1568.007,340.889,1568.074,340.411Zm12.184,19.781c.479.105.94.222,1.385.339a4.958,4.958,0,0,0,1.324.178q5.08,0,10.132-.033t10.133-.061q1.042-.033,2.051-.083t2.053-.05c.35-.022.689-.033,1.028-.033h1.029q.584,0,1.168.017c.395.011.772.028,1.146.05.823.067,1.618.1,2.374.1a22.606,22.606,0,0,0,2.98-.195,16.545,16.545,0,0,0,2.92-.684,2.921,2.921,0,0,0,1.368-.918,4.169,4.169,0,0,0,.812-1.479,4.408,4.408,0,0,0,.184-1.729A3.567,3.567,0,0,0,1621.8,354a6.767,6.767,0,0,0-1.547-1.741,7.948,7.948,0,0,0-1.873-1.079,11.069,11.069,0,0,0-2.119-.6c-.739-.128-1.49-.228-2.246-.295a25.787,25.787,0,0,0-3-.145q-1.5.017-3.031-.05-3.754-.067-7.413-.128l-7.413-.133h-.327a37.612,37.612,0,0,0-3.96.211,36.5,36.5,0,0,1-3.993.211c-.673,0-1.356-.028-2.052-.095h-.355a6.928,6.928,0,0,0-.946.067l-.978.128a8.7,8.7,0,0,0-.49,2.43,22.129,22.129,0,0,0,0,2.441c.045.818.105,1.635.178,2.458A14.489,14.489,0,0,1,1580.258,360.191Zm.456,19.319q1.143,0,3.275.05t4.761.128q2.619.083,5.488.184t5.489.195c1.751.067,3.337.128,4.76.195s2.524.128,3.3.195q.492.033,1.435.05c.634.011,1.307.017,2.023.017.847,0,1.652-.005,2.425-.017s1.279-.028,1.519-.05l2.1-.067a12.806,12.806,0,0,0,2.074-.228,7.757,7.757,0,0,0,1.952-.651,5.635,5.635,0,0,0,1.757-1.368,4.443,4.443,0,0,0,.884-1.679,7.209,7.209,0,0,0,.29-2.052,6.243,6.243,0,0,0-.323-2.019,3.434,3.434,0,0,0-1.012-1.546,2.643,2.643,0,0,0-1.04-.473c-.5-.145-1.034-.267-1.6-.378s-1.112-.2-1.629-.278a9.548,9.548,0,0,0-1.174-.111q-7.825-.359-15.526-.439t-15.526-.083h-5.706Z" transform="translate(-1519.003 -340.116)"/>
  <path id="Tracé_38" data-name="Tracé 38" d="M1624.4,365a11,11,0,0,1-.149,3.2,14.45,14.45,0,0,1-1.058,3.32,9.465,9.465,0,0,0-.472,1.307c-.117.434-.234.868-.34,1.3a16.87,16.87,0,0,1-2.836,6.223,22.9,22.9,0,0,1-4.922,4.821c-.956.7-1.891,1.324-2.8,1.874a18.331,18.331,0,0,1-2.8,1.4,16.7,16.7,0,0,1-6.316,1.19,19.816,19.816,0,0,1-3.933-.389,26.269,26.269,0,0,1-3.858-1.107c-1.085-.395-2.169-.767-3.242-1.129a14.2,14.2,0,0,1-3.109-1.479,15.7,15.7,0,0,1-3.5-2.8,13.3,13.3,0,0,1-2.43-3.748,24.566,24.566,0,0,1-1.336-3.959,20.034,20.034,0,0,1-.556-4.154c-.022-.584-.056-1.173-.111-1.757s-.105-1.173-.15-1.763a20.511,20.511,0,0,1,.051-3.092q.149-1.535.406-3.047l.522-3.031c.172-1.012.306-2.024.395-3.047a9.2,9.2,0,0,1,1.123-3.876,28.424,28.424,0,0,1,2.23-3.392,18.267,18.267,0,0,1,5.472-4.9,22.536,22.536,0,0,1,6.912-2.53c.2-.039.4-.083.6-.128a2.982,2.982,0,0,1,.634-.067h.194c1.151.156,2.291.3,3.409.439s2.252.3,3.4.473a1.448,1.448,0,0,1,.455.15,1,1,0,0,0,.423.111.3.3,0,0,0,.134-.033,3.958,3.958,0,0,1,1.3-.228,4.012,4.012,0,0,1,1.207.183,7.843,7.843,0,0,1,1.14.439c.367.172.74.35,1.107.534a8.148,8.148,0,0,0,1.14.473,13.089,13.089,0,0,1,2.8,1.368,8.5,8.5,0,0,1,2.247,2.152q1.075,1.468,2.186,2.9a20.92,20.92,0,0,1,1.957,3.031,19.519,19.519,0,0,1,1.919,5.717A40.219,40.219,0,0,1,1624.4,365Zm-31.053.818a41.983,41.983,0,0,0,.245,5.166,13.08,13.08,0,0,0,1.546,4.8,8.856,8.856,0,0,0,1.7,2.28,6.381,6.381,0,0,0,1.985,1.285,8.125,8.125,0,0,0,2.363.556q1.285.117,2.785.117a4.318,4.318,0,0,0,2.687-.717,4.831,4.831,0,0,0,1.484-2.414c.129-.367.273-.723.423-1.057s.307-.69.456-1.062c.194-.523.4-1.034.606-1.546a15.049,15.049,0,0,0,.534-1.579,20.438,20.438,0,0,0,.75-4.11,26.445,26.445,0,0,0,.018-4.087,29.763,29.763,0,0,0-.585-4.054c-.294-1.351-.64-2.686-1.028-4.01a10.2,10.2,0,0,0-.912-2.23,4.811,4.811,0,0,0-1.257-1.451,4.712,4.712,0,0,0-1.674-.8,9.048,9.048,0,0,0-2.219-.245h-.372a2.928,2.928,0,0,0-.412.033,25.15,25.15,0,0,0-2.524.178,6.069,6.069,0,0,0-2,.606,4.764,4.764,0,0,0-1.562,1.335,8.23,8.23,0,0,0-1.207,2.38,39.721,39.721,0,0,0-1.435,5.311A22,22,0,0,0,1593.352,365.819Z" transform="translate(-1458.781 -339.555)"/>
  <path id="Tracé_39" data-name="Tracé 39" d="M1590.088,340.879q3.193-.167,6.223-.328c2.024-.106,4.075-.217,6.161-.323a3.476,3.476,0,0,1,.489,1.707c.017.639.028,1.29.028,1.941-.017.5-.039,1.006-.062,1.529s-.044,1.034-.066,1.535c-.045,1.713-.095,3.42-.145,5.111s-.095,3.4-.117,5.116c-.045,1.98-.067,3.926-.067,5.85s.022,3.87.067,5.85c.022,1.107.095,2.185.211,3.242a12.154,12.154,0,0,0,.718,2.964,8.6,8.6,0,0,0,1.519,2.525,7.826,7.826,0,0,0,2.6,1.924,3.337,3.337,0,0,0,1.567.389,3.855,3.855,0,0,0,1.463-.289,8.276,8.276,0,0,0,3.326-2.286,6.083,6.083,0,0,0,1.3-3.776q.267-6.323.506-12.545t.312-12.546a23.668,23.668,0,0,0-.167-2.8c-.105-.934-.194-1.868-.256-2.8a8.889,8.889,0,0,1-.016-.962c.011-.334.016-.723.016-1.157.823.045,1.613.1,2.358.167s1.507.106,2.269.128h1.6c.74,0,1.475-.011,2.214-.033s1.479-.056,2.219-.094a2.732,2.732,0,0,1,1.385.256c.267.178.406.623.406,1.34q.066,3.095.066,6.139c0,2.03.017,4.082.061,6.145q.034,2.052.167,4.054c.084,1.335.14,2.692.162,4.06q.032,2.377-.018,4.721t-.116,4.693a5.73,5.73,0,0,1-.178,1.14,3.2,3.2,0,0,0-.078,1.14,10.857,10.857,0,0,1-.2,2.658,15.937,15.937,0,0,1-.712,2.475,17.136,17.136,0,0,1-1.112,2.33q-.65,1.143-1.368,2.213a10.747,10.747,0,0,1-1.791,2.085,6.479,6.479,0,0,1-2.507,1.4,12.237,12.237,0,0,0-1.335.473c-.439.189-.879.367-1.323.54s-.885.334-1.318.473a5.2,5.2,0,0,1-1.335.245c-.784.067-1.558.094-2.313.094-1.045,0-2.074-.033-3.1-.111s-2.051-.145-3.1-.211c-1.106-.067-2.207-.178-3.3-.345a11.043,11.043,0,0,1-3.208-.99,18.938,18.938,0,0,1-7.775-6.6,18.079,18.079,0,0,1-2.686-9.821q-.1-5.48,0-10.883c.022-1.262.062-2.519.128-3.765s.1-2.5.1-3.765a15.574,15.574,0,0,0-.116-2.4,16.4,16.4,0,0,1-.111-2.391c.022-1.24.067-2.464.145-3.67S1590.021,342.18,1590.088,340.879Z" transform="translate(-1416.645 -339.605)"/>
  <path id="Tracé_40" data-name="Tracé 40" d="M1611.828,350.651q-3.287,0-6.417-.05t-6.451-.05a6.314,6.314,0,0,0-.134-.717c-.062-.278-.122-.584-.178-.912l-.161-.973q-.083-.492-.117-.851c-.083-.957-.155-1.9-.211-2.819s-.111-1.857-.178-2.814c-.045-.5.017-.828.178-.979a1.746,1.746,0,0,1,1.09-.228h.066l4.349.067q2.169.025,4.354.028h1.479c.489,0,.984-.011,1.484-.028h2.152q1.693,0,4.216.011t5.294.017q2.777,0,5.478.017t4.755.017h2.836a10.855,10.855,0,0,1,1.351.083c.445.056.9.111,1.352.178a1.471,1.471,0,0,1,1.34,1.763,22.181,22.181,0,0,0-.016,2.28,14.27,14.27,0,0,1-.084,2.28c-.045.545-.066,1.179-.066,1.908a8.228,8.228,0,0,1-.262,2.1q-2.052,0-4.232-.15t-4.4-.145c-.867,0-1.724.028-2.558.078a21.991,21.991,0,0,0-2.492.311q-.558,9.384-.589,18.735t.066,19c-.306.044-.6.089-.878.133a5.461,5.461,0,0,1-.852.061h-.128q-2.051-.058-4.06-.178t-4.054-.211h-.65a9.282,9.282,0,0,1-.945-.094,1.141,1.141,0,0,1-.556-.245,1.049,1.049,0,0,1-.278-.539,6.534,6.534,0,0,1-.111-.945c-.045-1.935-.066-3.854-.066-5.767v-5.767q-.034-3.361,0-6.7t-.034-6.729c-.021-1.307-.061-2.591-.111-3.865s-.128-2.558-.211-3.859c-.022-.345-.045-.651-.067-.912s-.049-.517-.083-.767-.062-.506-.095-.779S1611.873,351.04,1611.828,350.651Z" transform="translate(-1378.854 -339.473)"/>
</svg>
