<svg xmlns="http://www.w3.org/2000/svg" width="170.796" height="32.785" viewBox="0 0 170.796 32.785">
  <g id="Groupe_14" data-name="Groupe 14" transform="translate(0)">
    <path id="Tracé_36" data-name="Tracé 36" d="M1569.934,340.415c.553,0,1.106,0,1.664.011s1.106.011,1.664.011h1.077c.346,0,.7-.007,1.055-.022a8.877,8.877,0,0,1,.99.044,1.424,1.424,0,0,1,.619.2,1.375,1.375,0,0,1,.426.481,6.869,6.869,0,0,1,.4.874q.683,1.835,1.438,3.619t1.442,3.615q.552,1.513,1,3.04t.961,3.062a8.287,8.287,0,0,0,.415,1.078c.164.346.316.7.459,1.056q.851,2.152,1.674,4.274t1.674,4.256c.2.542.4,1.074.619,1.6s.44,1.045.68,1.555a4.438,4.438,0,0,1,.386,1.292,2.793,2.793,0,0,1-.215,1.4c-.084.029-.178.055-.277.084a1.137,1.137,0,0,1-.32.044q-1.366-.044-2.72-.117t-2.719-.138h-.415a2.124,2.124,0,0,1-.419-.044,2.661,2.661,0,0,1-.979-.375,1.307,1.307,0,0,1-.513-.947c-.113-.542-.233-1.074-.361-1.6s-.273-1.052-.426-1.576a2.381,2.381,0,0,0-.535-1.056,1.357,1.357,0,0,0-.979-.309,2.178,2.178,0,0,0-.32.018q-1.366.109-2.712.3t-2.708.3c-.2.015-.4.026-.6.033s-.4.011-.6.011c-.327,0-.651,0-.979-.011s-.662-.011-1.005-.011c-.24.684-.487,1.365-.746,2.049s-.492,1.387-.7,2.111a1.625,1.625,0,0,1-.4.7,1.1,1.1,0,0,1-.736.259c-.269.025-.538.058-.808.095s-.542.062-.812.073q-2.173.175-4.35.258a2.288,2.288,0,0,1-.546-.065c-.178-.044-.35-.091-.52-.149a.756.756,0,0,1-.535-1.067c.113-.368.222-.743.32-1.118a9.065,9.065,0,0,1,.364-1.1q.726-1.966,1.471-3.9t1.492-3.906q.683-1.747,1.355-3.5t1.332-3.517q.748-2.01,1.442-3.979t1.438-3.979q.491-1.343,1.026-2.654T1569.934,340.415Zm1.536,19.283,2.388.127q1.2.065,2.494.127-.682-2.239-1.332-4.339t-1.311-4.3a31.888,31.888,0,0,0-1.591,4.51A17.99,17.99,0,0,0,1571.471,359.7Z" transform="translate(-1558.564 -339.326)"/>
    <path id="Tracé_37" data-name="Tracé 37" d="M1567.786,340.309c.382-.044,1.008-.08,1.875-.106s1.853-.047,2.955-.055l3.466-.022q1.813-.011,3.437-.011h9.319c.284,0,.7.007,1.238.022s1.147.025,1.824.033,1.38.018,2.112.033,1.43.025,2.089.04,1.252.029,1.773.044.892.029,1.118.044c.8.029,1.587.084,2.37.171s1.562.182,2.344.3a7.177,7.177,0,0,1,1.387.349,10.918,10.918,0,0,0,1.387.4,3.484,3.484,0,0,1,.951.342,5.21,5.21,0,0,1,.808.531,8.218,8.218,0,0,1,.724.652c.237.233.473.466.717.692a5.464,5.464,0,0,1,1.791,3.437,18.207,18.207,0,0,1,.127,2.472,14.331,14.331,0,0,1-.342,2.967,7.091,7.091,0,0,1-1.277,2.708.494.494,0,0,0-.109.233.992.992,0,0,1-.04.193,13.785,13.785,0,0,1,2.2,2.763,7.821,7.821,0,0,1,1.045,3.378,10.361,10.361,0,0,1-.393,3.939,16.557,16.557,0,0,1-1.591,3.549,1.475,1.475,0,0,1-.255.309,3.747,3.747,0,0,1-.32.266,11.873,11.873,0,0,1-3.134,1.729,10.32,10.32,0,0,1-3.542.6q-3.025.022-6.014.106t-6.036.149h-.321c-.414,0-.819-.011-1.216-.029s-.8-.033-1.215-.033h-.685c-.939,0-1.875,0-2.813-.011s-1.879-.011-2.818-.011-1.9.011-2.847.033-1.886.066-2.825.138c-.229.015-.451.025-.674.033s-.444.007-.669.007c-.827,0-1.642-.025-2.443-.084s-1.612-.084-2.42-.084c-.313,0-.619.007-.917.018s-.6.036-.917.066a.543.543,0,0,1-.171.022,1.289,1.289,0,0,1-.63-.149,2.675,2.675,0,0,1-.5-.364,1.18,1.18,0,0,1-.393-.51,1.636,1.636,0,0,1-.055-.684q.236-4.647.321-9.279a10.658,10.658,0,0,0-.073-1.565,12.448,12.448,0,0,1-.1-1.569c-.014-1.649-.014-3.291-.011-4.929s0-3.269-.007-4.9c0-.684-.019-1.365-.055-2.049s-.04-1.365-.011-2.046c.015-.3.04-.63.073-.994s.077-.732.12-1.107.088-.754.138-1.132S1567.741,340.622,1567.786,340.309Zm7.976,12.949c.313.069.616.146.906.222a3.247,3.247,0,0,0,.867.117q3.326,0,6.633-.022t6.633-.04q.682-.022,1.343-.055t1.344-.033c.229-.015.451-.022.673-.022h.674c.255,0,.51,0,.765.011s.506.018.75.033c.539.044,1.059.066,1.554.066a14.8,14.8,0,0,0,1.951-.127,10.831,10.831,0,0,0,1.911-.448,1.912,1.912,0,0,0,.9-.6,2.73,2.73,0,0,0,.531-.968,2.884,2.884,0,0,0,.12-1.132,2.334,2.334,0,0,0-.353-1.056,4.431,4.431,0,0,0-1.013-1.139,5.2,5.2,0,0,0-1.226-.706,7.245,7.245,0,0,0-1.387-.393c-.484-.084-.975-.149-1.47-.193a16.891,16.891,0,0,0-1.962-.095q-.984.011-1.984-.033-2.458-.044-4.853-.084l-4.853-.087H1584a24.628,24.628,0,0,0-2.592.138,23.887,23.887,0,0,1-2.614.138c-.44,0-.888-.018-1.343-.062h-.233a4.536,4.536,0,0,0-.62.044l-.64.084a5.7,5.7,0,0,0-.321,1.591,14.481,14.481,0,0,0,0,1.6c.029.535.069,1.07.116,1.609A9.477,9.477,0,0,1,1575.761,353.258Zm.3,12.647q.748,0,2.144.033t3.116.084q1.715.055,3.593.12t3.594.127c1.146.044,2.184.084,3.116.127s1.652.084,2.163.127q.322.022.939.033c.415.007.855.011,1.325.011.554,0,1.082,0,1.587-.011s.838-.018.994-.033l1.373-.044a8.382,8.382,0,0,0,1.358-.149,5.078,5.078,0,0,0,1.278-.426,3.689,3.689,0,0,0,1.15-.9,2.908,2.908,0,0,0,.579-1.1,4.721,4.721,0,0,0,.19-1.343,4.089,4.089,0,0,0-.212-1.321,2.248,2.248,0,0,0-.662-1.012,1.73,1.73,0,0,0-.681-.309c-.327-.095-.677-.175-1.045-.248s-.728-.131-1.066-.182a6.245,6.245,0,0,0-.768-.073q-5.123-.235-10.164-.288t-10.164-.055h-3.735Z" transform="translate(-1535.662 -340.116)"/>
    <path id="Tracé_38" data-name="Tracé 38" d="M1609.221,356.449a7.2,7.2,0,0,1-.1,2.093,9.457,9.457,0,0,1-.692,2.173,6.188,6.188,0,0,0-.309.855c-.077.284-.153.568-.223.852a11.043,11.043,0,0,1-1.856,4.074,14.987,14.987,0,0,1-3.222,3.156c-.626.455-1.238.866-1.834,1.227a12,12,0,0,1-1.835.917,10.933,10.933,0,0,1-4.135.779,12.972,12.972,0,0,1-2.574-.255,17.194,17.194,0,0,1-2.526-.724c-.71-.258-1.42-.5-2.122-.739a9.294,9.294,0,0,1-2.035-.968,10.278,10.278,0,0,1-2.293-1.835,8.7,8.7,0,0,1-1.591-2.454,16.07,16.07,0,0,1-.875-2.592,13.11,13.11,0,0,1-.364-2.719c-.015-.382-.036-.768-.073-1.15s-.069-.768-.1-1.154a13.438,13.438,0,0,1,.033-2.024q.1-1,.266-1.995l.342-1.984c.113-.663.2-1.325.258-1.995a6.025,6.025,0,0,1,.735-2.537,18.608,18.608,0,0,1,1.46-2.221,11.957,11.957,0,0,1,3.582-3.207,14.75,14.75,0,0,1,4.525-1.656c.128-.025.259-.055.394-.084a1.951,1.951,0,0,1,.415-.044h.127c.754.1,1.5.2,2.232.288s1.474.2,2.228.309a.948.948,0,0,1,.3.1.655.655,0,0,0,.277.073.193.193,0,0,0,.088-.022,2.591,2.591,0,0,1,.852-.149,2.627,2.627,0,0,1,.79.12,5.136,5.136,0,0,1,.746.288c.24.113.485.229.725.349a5.334,5.334,0,0,0,.746.309,8.57,8.57,0,0,1,1.835.9,5.562,5.562,0,0,1,1.471,1.409q.7.961,1.431,1.9a13.7,13.7,0,0,1,1.281,1.984,12.779,12.779,0,0,1,1.256,3.742A26.32,26.32,0,0,1,1609.221,356.449Zm-20.328.535a27.5,27.5,0,0,0,.16,3.382,8.565,8.565,0,0,0,1.012,3.145,5.8,5.8,0,0,0,1.11,1.493,4.177,4.177,0,0,0,1.3.841,5.317,5.317,0,0,0,1.547.364q.841.076,1.823.077a2.827,2.827,0,0,0,1.759-.47,3.162,3.162,0,0,0,.972-1.58c.084-.24.179-.473.277-.692s.2-.451.3-.7c.127-.342.263-.677.4-1.012a9.867,9.867,0,0,0,.35-1.034,13.38,13.38,0,0,0,.491-2.69,17.315,17.315,0,0,0,.011-2.676,19.479,19.479,0,0,0-.383-2.654c-.192-.885-.419-1.758-.673-2.625a6.682,6.682,0,0,0-.6-1.46,3.149,3.149,0,0,0-.823-.95,3.084,3.084,0,0,0-1.1-.524,5.921,5.921,0,0,0-1.452-.16h-.244a1.916,1.916,0,0,0-.27.022,16.46,16.46,0,0,0-1.652.117,3.972,3.972,0,0,0-1.311.4,3.119,3.119,0,0,0-1.023.874,5.388,5.388,0,0,0-.79,1.558,26.006,26.006,0,0,0-.939,3.477A14.4,14.4,0,0,0,1588.893,356.985Z" transform="translate(-1500.8 -339.791)"/>
    <path id="Tracé_39" data-name="Tracé 39" d="M1589.948,340.654q2.091-.109,4.073-.215c1.325-.069,2.668-.142,4.033-.211a2.276,2.276,0,0,1,.32,1.118c.011.419.019.845.019,1.271-.011.328-.025.659-.04,1s-.029.677-.043,1c-.029,1.121-.062,2.239-.094,3.346s-.062,2.228-.077,3.349c-.03,1.3-.044,2.57-.044,3.83s.015,2.534.044,3.83c.015.724.062,1.431.138,2.122a7.959,7.959,0,0,0,.47,1.94,5.63,5.63,0,0,0,.994,1.653,5.119,5.119,0,0,0,1.7,1.26,2.184,2.184,0,0,0,1.026.255,2.523,2.523,0,0,0,.958-.189,5.419,5.419,0,0,0,2.177-1.5,3.983,3.983,0,0,0,.852-2.472q.174-4.139.331-8.213t.2-8.213a15.468,15.468,0,0,0-.109-1.835c-.069-.612-.127-1.223-.167-1.835a5.8,5.8,0,0,1-.01-.63c.007-.218.01-.473.01-.757.539.029,1.056.065,1.544.109s.986.069,1.485.084h1.045c.484,0,.965-.007,1.449-.022s.968-.036,1.452-.062a1.789,1.789,0,0,1,.906.167c.175.116.266.408.266.877q.043,2.026.043,4.019c0,1.329.011,2.672.04,4.023q.022,1.343.109,2.654c.055.874.092,1.762.106,2.658q.021,1.556-.011,3.091t-.076,3.072a3.75,3.75,0,0,1-.116.746,2.1,2.1,0,0,0-.051.746,7.1,7.1,0,0,1-.131,1.74,10.442,10.442,0,0,1-.466,1.62,11.218,11.218,0,0,1-.728,1.525q-.426.748-.9,1.449a7.034,7.034,0,0,1-1.173,1.365,4.239,4.239,0,0,1-1.641.917,8.021,8.021,0,0,0-.874.309c-.288.124-.575.24-.866.353s-.579.218-.863.309a3.405,3.405,0,0,1-.874.16c-.513.044-1.02.062-1.515.062-.684,0-1.358-.022-2.028-.073s-1.342-.095-2.028-.138c-.724-.044-1.445-.116-2.162-.226a7.229,7.229,0,0,1-2.1-.648,12.4,12.4,0,0,1-5.09-4.321,11.834,11.834,0,0,1-1.758-6.429q-.066-3.587,0-7.124c.015-.826.04-1.649.084-2.465s.065-1.638.065-2.465a10.193,10.193,0,0,0-.076-1.569,10.723,10.723,0,0,1-.073-1.565c.015-.812.044-1.613.094-2.4S1589.9,341.506,1589.948,340.654Z" transform="translate(-1476.407 -339.82)"/>
    <path id="Tracé_40" data-name="Tracé 40" d="M1607.041,347.061q-2.152,0-4.2-.033t-4.223-.033a4.159,4.159,0,0,0-.088-.47c-.04-.182-.08-.382-.116-.6l-.105-.637q-.055-.322-.077-.557-.082-.939-.138-1.846c-.036-.6-.073-1.216-.116-1.842-.03-.328.011-.542.116-.641a1.143,1.143,0,0,1,.714-.149h.043l2.847.044q1.42.016,2.851.018h.969c.32,0,.644-.007.972-.018h1.409q1.109,0,2.76.007t3.466.011q1.818,0,3.586.011t3.113.011h1.856a7.1,7.1,0,0,1,.884.055c.292.036.586.073.885.116a.963.963,0,0,1,.877,1.154,14.484,14.484,0,0,0-.01,1.492,9.35,9.35,0,0,1-.055,1.493c-.03.357-.043.772-.043,1.249a5.381,5.381,0,0,1-.171,1.376q-1.343,0-2.771-.1t-2.879-.095c-.568,0-1.128.018-1.674.051a14.4,14.4,0,0,0-1.632.2q-.365,6.143-.385,12.264t.044,12.435c-.2.029-.393.058-.575.087a3.578,3.578,0,0,1-.558.04h-.084q-1.343-.038-2.657-.117t-2.654-.138h-.426a6.081,6.081,0,0,1-.619-.062.746.746,0,0,1-.364-.16.686.686,0,0,1-.182-.353,4.273,4.273,0,0,1-.073-.619c-.029-1.267-.043-2.523-.043-3.775v-3.775q-.022-2.2,0-4.383t-.022-4.4c-.014-.855-.04-1.7-.073-2.53s-.084-1.675-.138-2.526c-.015-.226-.029-.426-.044-.6s-.032-.339-.054-.5-.04-.331-.062-.51S1607.07,347.316,1607.041,347.061Z" transform="translate(-1454.53 -339.744)"/>
  </g>
</svg>
