<svg id="Groupe_17" data-name="Groupe 17" xmlns="http://www.w3.org/2000/svg" width="49.514" height="49.514" viewBox="0 0 49.514 49.514">
  <rect id="Rectangle_1" data-name="Rectangle 1" width="49.514" height="49.514" transform="translate(0 0)" fill="#191919"/>
  <g id="Groupe_3" data-name="Groupe 3" transform="translate(6.496 8.685)">
    <path id="Tracé_15" data-name="Tracé 15" d="M814.458,284.053a1.534,1.534,0,0,1-.54.231,2.747,2.747,0,0,1-.53.053c-.084,0-.167,0-.246-.005s-.16-.005-.237-.005h-.094q-.493,0-.97-.037t-.97-.078a1.941,1.941,0,0,1-.708-.184.96.96,0,0,1-.457-.614,3.038,3.038,0,0,0-.351-.719q-.226-.341-.435-.687-.367-.64-.745-1.275t-.777-1.275q-.115-.178-.241-.336c-.084-.1-.157-.2-.22-.284q-.3.273-.587.52t-.545.509a1.271,1.271,0,0,0-.331.54,1.986,1.986,0,0,0-.079.635q.021.336.021.661a5.285,5.285,0,0,1-.042.661q-.052.483-.141.95t-.173.928a4.8,4.8,0,0,1-1.049.094q-.336,0-.708-.026t-.734-.079q-.362-.053-.708-.126a6.349,6.349,0,0,1-.64-.168q.021-.493.047-1t.047-1.008q.011-.513.011-1.017t-.021-1.007q-.021-.86-.052-1.716t-.053-1.715q-.021-.566-.021-1.138t.031-1.149q.042-.839.115-1.673t.136-1.673q.042-.525.073-1.049t.074-1.091l1.448-.157q.284-.032.567-.068t.566-.058a1.425,1.425,0,0,1,.173-.01h.173a2.055,2.055,0,0,1,.562.078,1.422,1.422,0,0,1,.561.341q-.116,1.5-.241,3.079t-.252,3.257q.6-.8,1.128-1.526t1.075-1.443a17.175,17.175,0,0,1,1.133-1.322,8.891,8.891,0,0,0,.661-.808,4.666,4.666,0,0,0,.514-.912.8.8,0,0,1,.231-.33.605.605,0,0,1,.367-.131q.608-.021,1.217-.074t1.228-.052a7.631,7.631,0,0,1,.986.063q.482.063.976.147a2.544,2.544,0,0,0-.115.315.606.606,0,0,1-.126.241q-.692.777-1.374,1.532l-1.375,1.521q-.136.147-.257.3t-.236.336q-.4.566-.776,1.133t-.8,1.123a.777.777,0,0,0-.173.383.6.6,0,0,0,.142.393q.283.4.556.8t.525.818q.388.63.75,1.275t.75,1.275q.45.734.917,1.448t.918,1.438a3.2,3.2,0,0,1,.236.461C814.309,283.732,814.381,283.892,814.458,284.053Z" transform="translate(-801.104 -268.285)" fill="#fff"/>
    <path id="Tracé_16" data-name="Tracé 16" d="M844.957,271.464v3.053c.1,0,.311,0,.64-.011s.732-.018,1.212-.031l1.6-.047,1.794-.053,1.794-.052,1.605-.047,1.227-.036q.5-.016.661-.016a.56.56,0,0,1,.11-.011h.488a4.513,4.513,0,0,1,.409,1.558,5.246,5.246,0,0,1-.116,1.516q-.472-.01-.892-.01t-.829-.011l-.362.005-.865.01-1.233.011-1.458.011-1.543.011q-.781.005-1.484.005h-1.075q-.5,0-.871-.011c-.248-.007-.447-.014-.6-.021a.844.844,0,0,1-.257-.032,5.172,5.172,0,0,0-.037.955q.026.472.069.944t.068.944a4.208,4.208,0,0,1-.058.955q.052-.01.75-.026l1.815-.042,2.539-.058,2.911-.063,2.938-.063q1.447-.032,2.617-.052t1.946-.031q.776-.01.934-.011a2.585,2.585,0,0,1,.451.031.51.51,0,0,1,.262.121.488.488,0,0,1,.131.257,2.143,2.143,0,0,1,.036.441q.011.608,0,1.212t-.026,1.264h-1.416q-1.155.021-2.3.031t-2.3.011q-1.059,0-2.1-.011t-2.1-.011h-.682q-1.018.01-2.014.047t-2.015.058q-.5.01-1.007.011H845.3q-.954.021-1.909.026t-1.92.016a.48.48,0,0,0-.078.005.61.61,0,0,1-.079.005.506.506,0,0,1-.116-.011.712.712,0,0,1-.446-.131.647.647,0,0,1-.11-.446q.01-1.521.016-3.027t.026-3.027q.01-.63.053-1.243t.032-1.233q-.011-.755-.058-1.511t-.078-1.521q-.032-.786-.047-1.568t-.026-1.568a.825.825,0,0,1,.152-.6.92.92,0,0,1,.6-.184q.4-.021.808-.026t.807-.016q.3-.01,1.06-.021t1.81-.016q1.054-.005,2.339-.005H853.2q1.212,0,2.345.005l2.13.01,1.762.011q.766.005,1.254.016t.6.021a.593.593,0,0,1,.577.556q.073.5.142,1t.1,1a.6.6,0,0,1-.163.5.886.886,0,0,1-.561.189q-.116.011-.865.016l-1.9.016q-1.149.01-2.591.016t-2.932.016q-1.49.01-2.922.016l-2.565.011q-1.132.005-1.857.005Z" transform="translate(-826.137 -268.065)" fill="#fff"/>
    <path id="Tracé_29" data-name="Tracé 29" d="M.406,18.8q-.1-.314-.181-.541t-.146-.44c.011-.227.029-.457.052-.692a5.01,5.01,0,0,0,.017-.717Q.1,15.38.126,14.361t.09-2.05q.043-.792.021-1.572t0-1.572Q.251,7.684.191,6.225T.036,3.295Q-.015,2.5.006,1.723T.028.138A.863.863,0,0,1,.307.025,1.47,1.47,0,0,1,.578,0,2.242,2.242,0,0,1,.986.038a2.152,2.152,0,0,0,.4.038H1.48A1,1,0,0,1,1.639.063h.168q.223,0,.451.013T2.71.088h.124A.705.705,0,0,0,2.959.076h.077q.249,0,.31.151A1.576,1.576,0,0,1,3.38.8a3.9,3.9,0,0,0,.039.754q.056.377.09.755.043.415.086.83t.06.83q.043,1.12.069,2.22T3.758,8.4q0,.829-.039,1.654t-.073,1.654q-.017.566-.052,1.126t-.043,1.126q-.017.855-.009,1.691t0,1.691c0,.093,0,.187,0,.283a1.849,1.849,0,0,1-.013.283,1.49,1.49,0,0,1-.176.7.577.577,0,0,1-.494.182q-.258.013-.516.013H.406Z" transform="translate(21.22 29.662) rotate(90)" fill="#fff"/>
    <path id="Tracé_20" data-name="Tracé 20" d="M805.655,351.531h3.914q.241,0,.472-.005t.472-.005c.1,0,.2,0,.3.005s.2.009.309.016a1.621,1.621,0,0,1,.373.053.4.4,0,0,1,.21.131.432.432,0,0,1,.079.236,1.919,1.919,0,0,1-.021.378q-.084.6-.147,1.181t-.136,1.127q-.819-.021-1.584-.031t-1.532-.031q-.525-.021-1.033-.047c-.339-.018-.68-.026-1.022-.026h-.294q-.924.021-1.846.079t-1.847.121a.925.925,0,0,1-.136.011h-.115a.639.639,0,0,1-.53-.173,1.3,1.3,0,0,1-.152-.677q-.052-1.143-.094-2.261t-.094-2.25q-.042-.713-.1-1.411t-.1-1.411a3.834,3.834,0,0,1,.005-.6q.026-.3.047-.6c.007-.077.012-.154.016-.231s.005-.154.005-.231q-.021-.3-.052-.6a4.256,4.256,0,0,1-.021-.6q.01-.986.037-1.951t.036-1.952a1.8,1.8,0,0,1,.089-.519.639.639,0,0,1,.3-.351h2.539a.2.2,0,0,0,.1-.026.142.142,0,0,1,.1-.016q.325.031.53.063a.733.733,0,0,1,.325.121.5.5,0,0,1,.173.278,2.735,2.735,0,0,1,.074.535q.031.682.021,1.358t-.011,1.369q0,.241.021.493c.014.168.021.336.021.5q-.01.629-.031,1.243t-.011,1.233q.021.745.042,1.485t.074,1.484q.041.619.11,1.238T805.655,351.531Z" transform="translate(-800.977 -321.604)" fill="#fff"/>
    <path id="Tracé_26" data-name="Tracé 26" d="M1051.8,355.269q-1.091.042-2.135.074t-2.093.052a1.891,1.891,0,0,1-.389-.047.533.533,0,0,1-.325-.184.239.239,0,0,1-.068-.173.478.478,0,0,1,.052-.184,1.147,1.147,0,0,1,.116-.184c.045-.059.086-.117.12-.173q.472-.745.95-1.469t.9-1.49q.492-.913.918-1.841t.876-1.862c.035-.07.073-.138.115-.2a.6.6,0,0,0,.084-.215,1.267,1.267,0,0,0,.011-.284.764.764,0,0,0-.063-.262q-.3-.535-.64-1.039a6.956,6.956,0,0,1-.577-1.049,7.517,7.517,0,0,0-.425-.792q-.236-.383-.488-.75t-.5-.729q-.252-.362-.472-.75-.283-.483-.556-.97t-.577-1.044q.388-.063.719-.131a4.78,4.78,0,0,1,.656-.089q.588-.031,1.165-.042t1.164-.011a2.573,2.573,0,0,1,.409.027.636.636,0,0,1,.268.1.7.7,0,0,1,.194.226,4.183,4.183,0,0,1,.189.388q.147.336.32.661t.341.661q.095.2.184.4t.184.388q.083.147.173.283c.059.091.117.182.173.273q.231.336.467.682l.509.745q.6-1.185,1.17-2.334t1.17-2.345a2.479,2.479,0,0,0,.288-.063,1.2,1.2,0,0,1,.32-.042q.8-.021,1.584-.036t1.584-.016a1.277,1.277,0,0,1,.378.052.323.323,0,0,1,.21.283c-.1.182-.19.35-.278.5s-.17.311-.246.472q-.42.9-.881,1.768t-.976,1.715q-.421.693-.8,1.4t-.776,1.411a.624.624,0,0,0,.021.693q.178.262.336.54a3.129,3.129,0,0,0,.367.519,7.835,7.835,0,0,1,.593.782q.268.4.509.824t.478.85q.236.43.488.839.4.651.75,1.317t.719,1.338a1.444,1.444,0,0,1-.588.341,2.5,2.5,0,0,1-.682.089h-.131a.839.839,0,0,1-.131-.011c-.091-.007-.178-.011-.262-.011h-.262q-.43,0-.845.026t-.844.068a.361.361,0,0,0-.063.006.408.408,0,0,1-.063.005,1.054,1.054,0,0,1-.735-.247,1.974,1.974,0,0,1-.451-.614q-.472-.986-.913-1.972l-.923-2.067-.3.551q-.136.246-.251.488-.367.8-.719,1.595t-.687,1.605a.912.912,0,0,0-.058.3A3.538,3.538,0,0,1,1051.8,355.269Z" transform="translate(-1024.588 -321.975)" fill="#fff"/>
  </g>
</svg>
