<svg id="Groupe_4" data-name="Groupe 4" xmlns="http://www.w3.org/2000/svg" width="496.141" height="235.396" viewBox="0 0 496.141 235.396">
  <rect id="Rectangle_1" data-name="Rectangle 1" width="496.141" height="235.396" transform="translate(0 0)"/>
  <g id="Groupe_3" data-name="Groupe 3" transform="translate(32.014 35.208)">
    <path id="Tracé_15" data-name="Tracé 15" d="M855.021,331.824a6.214,6.214,0,0,1-2.191.937,11.14,11.14,0,0,1-2.148.213c-.34,0-.675-.007-1-.021s-.647-.022-.959-.022h-.383q-2,0-3.934-.149t-3.934-.318a7.865,7.865,0,0,1-2.87-.745,3.891,3.891,0,0,1-1.851-2.488,12.334,12.334,0,0,0-1.424-2.915q-.915-1.383-1.765-2.786-1.489-2.593-3.019-5.167T826.4,313.2q-.468-.722-.978-1.361t-.894-1.149q-1.232,1.106-2.381,2.107t-2.211,2.062a5.155,5.155,0,0,0-1.34,2.189,8.04,8.04,0,0,0-.319,2.573q.084,1.363.086,2.68a21.538,21.538,0,0,1-.171,2.68q-.213,1.957-.573,3.85t-.7,3.764a19.44,19.44,0,0,1-4.254.383q-1.36,0-2.87-.106t-2.978-.319q-1.467-.213-2.87-.511a25.722,25.722,0,0,1-2.594-.68q.084-2,.192-4.04t.19-4.085q.042-2.081.043-4.124t-.086-4.083q-.086-3.488-.213-6.955t-.213-6.953q-.086-2.3-.084-4.615t.127-4.658q.17-3.4.468-6.783t.552-6.783q.168-2.127.3-4.253t.3-4.423l5.869-.638q1.15-.129,2.3-.276c.765-.1,1.532-.177,2.3-.235a5.762,5.762,0,0,1,.7-.041h.7a8.324,8.324,0,0,1,2.276.318,5.762,5.762,0,0,1,2.275,1.383q-.47,6.082-.978,12.484t-1.022,13.2q2.426-3.231,4.573-6.188t4.359-5.848a69.664,69.664,0,0,1,4.593-5.359,36,36,0,0,0,2.68-3.275,18.884,18.884,0,0,0,2.084-3.7,3.243,3.243,0,0,1,.935-1.34,2.455,2.455,0,0,1,1.489-.532q2.466-.086,4.934-.3t4.977-.213a30.915,30.915,0,0,1,4,.256q1.957.255,3.955.6a10.144,10.144,0,0,0-.467,1.276,2.464,2.464,0,0,1-.511.978q-2.805,3.149-5.571,6.209t-5.574,6.167q-.552.6-1.041,1.234t-.956,1.362q-1.617,2.3-3.148,4.593t-3.232,4.551a3.153,3.153,0,0,0-.7,1.553,2.446,2.446,0,0,0,.575,1.594q1.148,1.618,2.253,3.232t2.127,3.318q1.573,2.553,3.042,5.169t3.042,5.167q1.826,2.976,3.72,5.869T853.192,328a12.854,12.854,0,0,1,.956,1.87C854.418,330.521,854.708,331.173,855.021,331.824Z" transform="translate(-800.883 -267.9)" fill="#fff"/>
    <path id="Tracé_16" data-name="Tracé 16" d="M858.384,281.846v12.376q.6,0,2.6-.043t4.912-.127l6.487-.192q3.572-.106,7.272-.213t7.272-.213l6.509-.192q2.934-.084,4.975-.148t2.68-.064a2.286,2.286,0,0,1,.446-.043h1.978a18.3,18.3,0,0,1,1.659,6.315,21.257,21.257,0,0,1-.468,6.147q-1.914-.042-3.615-.043t-3.359-.043q-.129,0-1.468.022t-3.508.041q-2.169.022-5,.043t-5.912.043l-6.253.043q-3.166.022-6.018.021H865.21q-2.019,0-3.531-.043c-1.006-.027-1.814-.056-2.423-.084a3.417,3.417,0,0,1-1.043-.128,20.926,20.926,0,0,0-.149,3.87q.106,1.914.278,3.829t.275,3.828a17.059,17.059,0,0,1-.233,3.87q.213-.042,3.042-.106t7.358-.171q4.529-.1,10.293-.233t11.8-.256q6.04-.126,11.909-.254t10.611-.213q4.742-.086,7.89-.127t3.785-.043a10.479,10.479,0,0,1,1.83.127,2.069,2.069,0,0,1,1.062.489,1.979,1.979,0,0,1,.532,1.042,8.709,8.709,0,0,1,.148,1.787q.044,2.466-.019,4.912t-.106,5.126h-5.742q-4.682.084-9.338.127t-9.335.043q-4.294,0-8.527-.043t-8.528-.043h-2.765q-4.126.042-8.165.192t-8.168.233q-2.041.042-4.082.043h-4.085q-3.869.084-7.741.106t-7.784.064a1.955,1.955,0,0,0-.318.022,2.435,2.435,0,0,1-.319.021,2.032,2.032,0,0,1-.468-.043,2.886,2.886,0,0,1-1.807-.532,2.622,2.622,0,0,1-.448-1.807q.042-6.167.063-12.271t.106-12.27q.042-2.553.213-5.04t.128-5q-.044-3.062-.235-6.125t-.318-6.167q-.129-3.189-.192-6.358t-.106-6.358a3.343,3.343,0,0,1,.616-2.446,3.73,3.73,0,0,1,2.446-.745q1.615-.084,3.275-.106t3.273-.064q1.234-.042,4.3-.084t7.336-.064q4.275-.022,9.484-.022h20.5q4.913,0,9.506.022t8.633.041q4.042.022,7.145.043t5.083.064q1.976.044,2.446.086a2.4,2.4,0,0,1,2.338,2.254q.3,2.041.575,4.04t.4,4.04a2.412,2.412,0,0,1-.659,2.042,3.592,3.592,0,0,1-2.275.765q-.47.044-3.508.065t-7.7.064q-4.658.042-10.5.064t-11.887.064q-6.04.042-11.846.063t-10.4.043q-4.591.022-7.528.022Z" transform="translate(-782.087 -268.065)" fill="#fff"/>
    <path id="Tracé_17" data-name="Tracé 17" d="M963.9,269.828q-1.744,4.933-3.318,9.527t-3.189,9.144q-1.064,2.978-2.148,5.912t-2.146,5.869q-.853,2.424-1.6,4.785t-1.553,4.786q-.981,2.934-1.956,5.8t-1.914,5.805q-.638,1.959-1.192,3.913t-1.105,3.956a5.167,5.167,0,0,1-1.681,2.68,4.659,4.659,0,0,1-3,.935q-2.595-.086-5.147-.191t-5.147-.192a22.154,22.154,0,0,1-2.423-.17,3.342,3.342,0,0,1-1.47-.532,2.888,2.888,0,0,1-.934-1.191,21.04,21.04,0,0,1-.83-2.234q-1.66-5.061-3.169-10.122t-3.127-10.165q-2.55-8.123-5.294-16.078t-5.636-15.948q-.467-1.361-1.064-2.68t-1.275-2.85a8.969,8.969,0,0,0,1.381-.532,3.566,3.566,0,0,1,1.341-.362q2.167-.168,4.316-.233t4.316-.063q.98,0,1.935.084c.638.058,1.282.086,1.937.086a3.078,3.078,0,0,1,3.359,2.254q.552,1.531,1,3.083t.956,3.126q.722,2.169,1.489,4.253t1.4,4.254q1.447,5.061,2.808,10.1t2.764,10.1q.339,1.19.722,2.361a17.287,17.287,0,0,0,.978,2.359q.383-1.487.745-3t.829-3q1.489-5.061,3.019-10.059t2.978-10.1q.851-2.808,1.489-5.658t1.36-5.7a.806.806,0,0,0,.043-.256.85.85,0,0,1,.041-.254,19.333,19.333,0,0,0,.64-2.3,5.151,5.151,0,0,1,.892-2.042,1.569,1.569,0,0,1,.66-.575,1.968,1.968,0,0,1,.745-.148,4.363,4.363,0,0,1,1.424.256,4.544,4.544,0,0,0,1.468.254h.083c.482,0,.951-.006,1.4-.021s.922-.022,1.4-.022q2.043,0,4.04.065t4.04.148a3.264,3.264,0,0,1,1.107.3A11.547,11.547,0,0,0,963.9,269.828Z" transform="translate(-752.009 -267.914)" fill="#fff"/>
    <path id="Tracé_18" data-name="Tracé 18" d="M952.376,332.2q-.512-1.061-.9-1.829t-.722-1.488c.056-.767.142-1.545.255-2.34a11.609,11.609,0,0,0,.084-2.424,59.772,59.772,0,0,1-.106-6.933q.148-3.446.448-6.933a45.113,45.113,0,0,0,.106-5.317q-.108-2.637-.022-5.317.084-5.019-.213-9.952t-.765-9.911a39.077,39.077,0,0,1-.148-5.315q.1-2.637.1-5.359a5.546,5.546,0,0,1,1.383-.384,10.556,10.556,0,0,1,1.34-.084,16.108,16.108,0,0,1,2.021.127,15.447,15.447,0,0,0,1.978.129h.467a7.184,7.184,0,0,1,.786-.043h.83q1.106,0,2.234.043t2.232.041h.616a5.063,5.063,0,0,0,.617-.041h.383q1.234,0,1.532.51a3.712,3.712,0,0,1,.17,1.957,9.074,9.074,0,0,0,.191,2.551q.277,1.276.448,2.553.213,1.4.424,2.807c.143.935.241,1.872.3,2.807q.213,3.787.341,7.507t.17,7.464q0,2.805-.192,5.593t-.362,5.593q-.084,1.915-.256,3.807t-.211,3.807q-.086,2.892-.043,5.72t0,5.72c0,.313.006.632.021.957a4.3,4.3,0,0,1-.064.957,3.9,3.9,0,0,1-.872,2.361,3.635,3.635,0,0,1-2.446.616q-1.274.044-2.551.043h-9.611Z" transform="translate(-729.684 -267.804)" fill="#fff"/>
    <path id="Tracé_29" data-name="Tracé 29" d="M2.01,82.181q-.512-1.372-.9-2.364T.393,77.9c.056-.991.142-2,.255-3.024a19.358,19.358,0,0,0,.084-3.133Q.477,67.23.626,62.777t.448-8.96q.21-3.463.106-6.872t-.022-6.871q.084-6.487-.213-12.863T.18,14.4a65.217,65.217,0,0,1-.148-6.87q.1-3.408.1-6.927A4.61,4.61,0,0,1,1.52.109,8.206,8.206,0,0,1,2.86,0,12.519,12.519,0,0,1,4.88.164,12.01,12.01,0,0,0,6.858.33h.467A5.577,5.577,0,0,1,8.111.275h.83q1.106,0,2.234.055t2.232.053h.616A3.937,3.937,0,0,0,14.64.33h.383q1.234,0,1.532.659a6.114,6.114,0,0,1,.17,2.53,15.077,15.077,0,0,0,.191,3.3q.277,1.65.448,3.3.213,1.813.424,3.628t.3,3.628q.213,4.895.341,9.7t.17,9.648q0,3.626-.192,7.229t-.362,7.229q-.084,2.474-.256,4.92t-.211,4.92q-.086,3.737-.043,7.393t0,7.393c0,.4.006.817.021,1.237a7.149,7.149,0,0,1-.064,1.237,5.94,5.94,0,0,1-.872,3.051,3.06,3.06,0,0,1-2.446.8q-1.274.057-2.551.055H2.01Z" transform="translate(418.549 47.414) rotate(90)" fill="#fff"/>
    <path id="Tracé_19" data-name="Tracé 19" d="M989.821,298.839q-.171,2.85-.256,5.274t-.255,4.805q-.129,1.7-.362,3.381t-.4,3.381q-.126,1.618-.381,3.211t-.448,3.211q-.191,1.618-.3,3.232a23.091,23.091,0,0,0,.021,3.275q.084,1.234.256,2.424t.383,2.467a3.17,3.17,0,0,0-.4.191.75.75,0,0,1-.363.108q-2.849-.215-5.677-.468t-5.677-.468a.881.881,0,0,0-.278-.043.924.924,0,0,1-.276-.041,10.291,10.291,0,0,0-1.553-.149,1.474,1.474,0,0,1-1.17-.448,3.739,3.739,0,0,1-.637-1.553,12.906,12.906,0,0,1-.213-1.764q-.086-2.169-.086-4.318v-4.316q0-.638-.021-1.256a6.872,6.872,0,0,1,.064-1.211q.383-2.976.489-5.934t.084-5.933q-.02-2.976-.1-5.953t-.086-5.955q-.042-4.593-.19-9.123t-.235-9.166a21.015,21.015,0,0,1,.127-2.3q.128-1.148.3-2.3a1.852,1.852,0,0,1,.7-1.276,3.5,3.5,0,0,1,1.34-.6q1.447-.3,2.85-.446a26.675,26.675,0,0,1,2.807-.149,24.131,24.131,0,0,1,3.786.3,23.854,23.854,0,0,1,3.785.937,3.6,3.6,0,0,1,2.127,1.872q2.466,4.635,4.934,9.25t5.1,9.165a69.616,69.616,0,0,0,4.126,6.274q2.209,3,4.507,5.975c.058-.4.1-.737.127-1.021a8.2,8.2,0,0,0,.044-.851q.084-3.189.233-6.294t.106-6.252q-.042-3.488-.213-6.953t-.3-6.955c0-.284-.006-.56-.021-.829a5.425,5.425,0,0,1,.021-.83,5.1,5.1,0,0,1,.575-2.445,1.906,1.906,0,0,1,1.722-.745,3.676,3.676,0,0,1,.681.064c.226.043.495.092.808.149a8.325,8.325,0,0,0,1.383.213c.437.028.885.043,1.34.043q.722,0,1.467-.043t1.467-.127c.226-.028.439-.05.638-.065s.4-.021.6-.021a17.488,17.488,0,0,1,2.1.127c.7.086,1.4.185,2.107.3q2,.381,2.253,3.019a51.361,51.361,0,0,1,.214,7.507q-.173,3.72-.3,7.464-.126,2.934-.318,5.847t-.149,5.848q.084,5.318.256,10.506t.3,10.5q.084,2.3.128,4.615t.086,4.615q.04,3.02-2.722,3.02a1.377,1.377,0,0,1-.384-.041q-2.55-.129-5.039-.278t-5-.191a6,6,0,0,1-3.169-.765,6.225,6.225,0,0,1-2.149-2.383q-.977-1.744-1.956-3.424t-2-3.381q-1.915-3.189-3.85-6.315t-3.764-6.315q-1.487-2.553-2.829-5.19T989.821,298.839Z" transform="translate(-719.494 -267.79)" fill="#fff"/>
    <path id="Tracé_20" data-name="Tracé 20" d="M819.942,390.277h15.865q.977,0,1.913-.022t1.914-.021c.4,0,.8.007,1.211.021s.829.035,1.254.064a6.589,6.589,0,0,1,1.511.213,1.606,1.606,0,0,1,.849.532,1.754,1.754,0,0,1,.321.957,7.784,7.784,0,0,1-.086,1.53q-.341,2.426-.6,4.786t-.552,4.571q-3.319-.084-6.423-.127t-6.21-.127q-2.127-.086-4.19-.192c-1.374-.071-2.758-.106-4.145-.106h-1.192q-3.745.086-7.485.319t-7.487.489a3.749,3.749,0,0,1-.552.043H805.4a2.59,2.59,0,0,1-2.148-.7,5.261,5.261,0,0,1-.618-2.743q-.213-4.636-.383-9.166t-.383-9.122q-.17-2.892-.425-5.721t-.425-5.72a15.528,15.528,0,0,1,.022-2.446q.1-1.212.191-2.445c.028-.312.05-.623.064-.937s.021-.623.021-.935q-.084-1.234-.211-2.446a17.265,17.265,0,0,1-.086-2.445q.04-4,.149-7.911t.148-7.912a7.262,7.262,0,0,1,.362-2.105,2.592,2.592,0,0,1,1.213-1.424h10.292a.82.82,0,0,0,.4-.106.575.575,0,0,1,.4-.063q1.318.126,2.148.254a2.966,2.966,0,0,1,1.319.489,2.016,2.016,0,0,1,.7,1.129,11.1,11.1,0,0,1,.3,2.169q.126,2.765.084,5.507t-.043,5.551q0,.977.086,2c.058.68.084,1.361.084,2.042q-.04,2.55-.127,5.04t-.043,5q.086,3.02.17,6.018t.3,6.017q.168,2.511.446,5.02T819.942,390.277Z" transform="translate(-800.977 -234.287)" fill="#fff"/>
    <path id="Tracé_21" data-name="Tracé 21" d="M855.631,340.493q1.658,0,3.316.021t3.318.021h2.148q1.042,0,2.105-.041a18.423,18.423,0,0,1,1.978.084,2.829,2.829,0,0,1,1.233.4,2.705,2.705,0,0,1,.851.957,13.314,13.314,0,0,1,.786,1.743q1.36,3.658,2.87,7.209t2.872,7.21q1.106,3.018,2,6.06t1.914,6.1a16.3,16.3,0,0,0,.83,2.148q.485,1.042.914,2.105,1.7,4.3,3.339,8.527t3.337,8.485q.6,1.618,1.234,3.191t1.362,3.105a8.7,8.7,0,0,1,.765,2.572,5.536,5.536,0,0,1-.424,2.786c-.171.058-.356.114-.554.17a2.283,2.283,0,0,1-.638.086q-2.723-.086-5.423-.233t-5.423-.276h-.829a4.269,4.269,0,0,1-.83-.086,5.294,5.294,0,0,1-1.956-.745,2.61,2.61,0,0,1-1.021-1.892q-.341-1.615-.724-3.191t-.849-3.147a4.765,4.765,0,0,0-1.064-2.105,2.727,2.727,0,0,0-1.957-.617,3.554,3.554,0,0,0-.638.043q-2.721.213-5.4.6t-5.4.6c-.4.03-.795.05-1.192.065s-.793.021-1.189.021c-.654,0-1.306-.007-1.959-.021s-1.316-.022-2-.022q-.724,2.041-1.489,4.083t-1.4,4.21a3.317,3.317,0,0,1-.786,1.4,2.2,2.2,0,0,1-1.468.511q-.809.084-1.616.192t-1.616.149q-4.339.339-8.677.51a4.582,4.582,0,0,1-1.083-.129c-.356-.084-.7-.185-1.043-.3a1.508,1.508,0,0,1-1.064-2.127c.226-.737.44-1.48.637-2.232a18.737,18.737,0,0,1,.725-2.191q1.445-3.911,2.934-7.784t2.978-7.782q1.358-3.488,2.7-6.977t2.658-7.017q1.489-4,2.87-7.933t2.872-7.931q.977-2.679,2.041-5.3T855.631,340.493Zm3.062,38.448,4.763.256q2.382.126,4.977.256-1.363-4.467-2.659-8.655t-2.616-8.571a63.239,63.239,0,0,0-3.167,8.995A35.862,35.862,0,0,0,858.693,378.941Z" transform="translate(-785.713 -233.5)" fill="#fff"/>
    <path id="Tracé_22" data-name="Tracé 22" d="M929.745,363.827q-.554-.042-1.062-.086t-.979-.043h-.129l-4.466.086q-2.211.042-4.464.127a7.914,7.914,0,0,1-1.107-.084q-.851-.084-1.808-.128a2.427,2.427,0,0,1-1.51-.51,2.074,2.074,0,0,1-.659-1.426c-.072-.638-.149-1.239-.235-1.808a10.3,10.3,0,0,0-1.338-3.805,5.251,5.251,0,0,0-3.085-2.276q-1.274-.381-2.572-.657a12.306,12.306,0,0,0-2.575-.278,7.664,7.664,0,0,0-4.57,1.446,11.841,11.841,0,0,0-3.3,3.572,26.782,26.782,0,0,0-2.043,4.382,13.018,13.018,0,0,0-.722,4.848,45.569,45.569,0,0,1-.191,5.04q-.235,2.488-.276,5.04a28.558,28.558,0,0,0,.17,3.126q.168,1.553.383,3.083a6.164,6.164,0,0,0,.448,1.3,11.388,11.388,0,0,0,1.211,2.107,13.427,13.427,0,0,0,1.978,2.211,7.4,7.4,0,0,0,2.743,1.573,9.937,9.937,0,0,0,4.72,1.148,10.765,10.765,0,0,0,7.4-2.848,17.279,17.279,0,0,0,1.34-1.4,4.63,4.63,0,0,0,.787-1.319,4.148,4.148,0,0,0,.256-1.468,7.089,7.089,0,0,0-.256-1.765,1.283,1.283,0,0,1,1.062-1.657c.172-.028.341-.049.511-.065a3.76,3.76,0,0,0,.468-.063.944.944,0,0,1,.362.063.906.906,0,0,0,.362.065h.084a7.5,7.5,0,0,1,1.53-.341,13.617,13.617,0,0,1,1.489-.084,20.708,20.708,0,0,1,3.827.36,20.487,20.487,0,0,0,3.829.363h.17a2.208,2.208,0,0,1,1.872.829,2.8,2.8,0,0,1,.637,2.062,15.626,15.626,0,0,1-1.6,5.656,24.986,24.986,0,0,1-3.337,4.934,21.755,21.755,0,0,1-4.3,3.956q-2.382,1.658-4.678,3.445a6.725,6.725,0,0,1-2.253.745q-1.618.319-3.467.532t-3.551.318q-1.7.106-2.467.108-1.872,0-3.359-.108c-.993-.069-1.957-.185-2.892-.34a26.291,26.291,0,0,1-2.827-.638q-1.427-.4-3.211-1.042a18.619,18.619,0,0,1-7.145-4.381,24.532,24.532,0,0,1-4.807-6.931,55.278,55.278,0,0,1-3.594-10.273,32.4,32.4,0,0,1-.7-10.824,54.452,54.452,0,0,1,1.659-9.357,31.56,31.56,0,0,1,3.381-7.976,27.951,27.951,0,0,1,5.486-6.549,33.728,33.728,0,0,1,7.974-5.126,2.784,2.784,0,0,1,.511-.17q2.85-.341,5.679-.7a44.419,44.419,0,0,1,5.634-.362,24.554,24.554,0,0,1,8.953,1.659,21.8,21.8,0,0,1,7.591,4.977,29.432,29.432,0,0,1,3.212,3.742,19.5,19.5,0,0,1,2.105,3.764,22.141,22.141,0,0,1,1.254,4.147,47.429,47.429,0,0,1,.7,4.891,1,1,0,0,1-.065.532A4.633,4.633,0,0,0,929.745,363.827Z" transform="translate(-765.323 -233.995)" fill="#fff"/>
    <path id="Tracé_23" data-name="Tracé 23" d="M1015.524,403.149a2.694,2.694,0,0,0-.51.233.943.943,0,0,1-.468.149q-3.53-.042-7-.043t-7-.213a4.623,4.623,0,0,1-2.105-.7,4.062,4.062,0,0,1-1.553-1.807q-.767-1.788-1.53-3.488t-1.618-3.445q-1.19-2.511-2.381-4.977t-2.424-4.977a1.814,1.814,0,0,0-1.3-1.084q-.831-.148-1.638-.233-3.189-.213-6.315-.383t-6.317-.34q-4.379-.215-8.76-.448t-8.8-.4h-.681q-1.489,0-2.956.129t-2.956.213q-3.7.126-7.337.256l-7.379.256-1.446.084c-.483.028-1.006.071-1.573.127a38.487,38.487,0,0,1,.3,4.848q0,2.511.043,5.02t.255,5a23.907,23.907,0,0,0,.894,4.785,7.5,7.5,0,0,1-1.767,1.489,4.648,4.648,0,0,1-2.275.468q-1.744-.173-3.423-.256t-3.424-.17q-.851-.044-1.7-.129t-1.7-.086a13.069,13.069,0,0,1-1.681-.084,1.488,1.488,0,0,1-.915-.4,1.7,1.7,0,0,1-.383-.957,13.742,13.742,0,0,1-.084-1.743q0-11.824-.022-23.5t-.149-23.5q0-.935-.063-2.019c-.043-.724-.084-1.461-.129-2.211s-.084-1.489-.126-2.211-.078-1.4-.108-2.021q-.042-.51-.084-1.041a6.135,6.135,0,0,1,0-1.043,3.4,3.4,0,0,1,.6-1.892,2.636,2.636,0,0,1,1.829-.617q.383-.04,2.978-.084t6.656-.086q4.06-.04,9.271-.106l10.782-.127q5.571-.064,11.143-.127t10.441-.106q4.87-.042,8.634-.065t5.72-.021h.83a3.054,3.054,0,0,1,.573.043,41.29,41.29,0,0,1,8.911,1.148,26.533,26.533,0,0,1,8.358,3.658,34.979,34.979,0,0,1,5.1,4.126,16.439,16.439,0,0,1,3.656,5.572q.682,1.573,1.319,3.1a19.836,19.836,0,0,1,1.021,3.191,14.821,14.821,0,0,1-4,14.5q-.851.893-1.787,1.743t-1.913,1.616a1.992,1.992,0,0,0-.765,1.064,2.124,2.124,0,0,0,.127,1.234q.851,2.382,1.722,4.764t1.915,4.678q1.039,2.3,2.275,4.486a35.117,35.117,0,0,0,2.807,4.232,12.185,12.185,0,0,0,.83,1.064,8.646,8.646,0,0,1,.808,1.084,6.255,6.255,0,0,1,.6,1.233A3.608,3.608,0,0,1,1015.524,403.149Zm-83.446-33.812h3.147q2.765,0,7.125.021t9.506.064q5.145.042,10.7.064t10.7.022q3.955,0,7.464-.022t6.209-.084q2.7-.064,4.445-.149a8.353,8.353,0,0,0,2.126-.256,10.13,10.13,0,0,0,2.192-1.3,4.31,4.31,0,0,0,1.467-1.807,8.514,8.514,0,0,0,.575-3.021q.02-1.615.064-3.232a2.577,2.577,0,0,0-.213-1.148,1.6,1.6,0,0,0-.64-.851,6.362,6.362,0,0,0-1.508-1.51,10.367,10.367,0,0,0-1.786-1.021,9.2,9.2,0,0,0-1.829-.6c-.61-.127-1.143-.219-1.6-.276q-.809-.129-3.381-.213t-6.295-.17q-3.723-.086-8.272-.149t-9.336-.128q-4.784-.064-9.463-.084t-8.676-.022q-4.6,0-7.763.043t-3.977.128q-.255,4-.51,7.89T932.078,369.336Z" transform="translate(-746.602 -234.187)" fill="#fff"/>
    <path id="Tracé_24" data-name="Tracé 24" d="M1041.9,371.952a14.349,14.349,0,0,1-.192,4.169,19.019,19.019,0,0,1-1.381,4.339,11.649,11.649,0,0,0-.616,1.7c-.156.569-.306,1.135-.448,1.7a21.953,21.953,0,0,1-3.7,8.123,30.14,30.14,0,0,1-6.422,6.3q-1.872,1.361-3.658,2.445a24.5,24.5,0,0,1-3.658,1.829,21.746,21.746,0,0,1-8.25,1.553,25.781,25.781,0,0,1-5.126-.511,33.154,33.154,0,0,1-5.039-1.445q-2.129-.767-4.234-1.468a18.611,18.611,0,0,1-4.062-1.935,20.564,20.564,0,0,1-4.57-3.658,17.383,17.383,0,0,1-3.169-4.891,32.041,32.041,0,0,1-1.743-5.167,26.017,26.017,0,0,1-.724-5.423q-.042-1.148-.149-2.3t-.19-2.3a25.576,25.576,0,0,1,.063-4.04q.191-2,.532-3.977l.679-3.955q.339-1.979.511-3.977A12.177,12.177,0,0,1,987.818,354a36.489,36.489,0,0,1,2.915-4.423,23.922,23.922,0,0,1,7.145-6.4,29.364,29.364,0,0,1,9.016-3.3c.255-.056.518-.114.787-.17a3.946,3.946,0,0,1,.829-.086h.256q2.253.3,4.444.575t4.445.616a2,2,0,0,1,.6.192,1.238,1.238,0,0,0,.552.149.381.381,0,0,0,.17-.043,5.093,5.093,0,0,1,1.7-.3,5.393,5.393,0,0,1,1.575.233,11.341,11.341,0,0,1,1.488.575q.725.341,1.448.7a11.147,11.147,0,0,0,1.488.617,16.8,16.8,0,0,1,3.658,1.786,11.055,11.055,0,0,1,2.935,2.807q1.4,1.914,2.849,3.786a27.686,27.686,0,0,1,2.551,3.955,25.565,25.565,0,0,1,2.51,7.464A52.928,52.928,0,0,1,1041.9,371.952Zm-40.532,1.064a54.214,54.214,0,0,0,.32,6.742,17.075,17.075,0,0,0,2.019,6.274,11.648,11.648,0,0,0,2.211,2.977,8.564,8.564,0,0,0,2.594,1.68,10.562,10.562,0,0,0,3.084.724q1.68.148,3.637.148a5.656,5.656,0,0,0,3.508-.935,6.352,6.352,0,0,0,1.934-3.146q.255-.725.554-1.384t.6-1.381q.381-1.019.787-2.021a19.417,19.417,0,0,0,.7-2.062,27.193,27.193,0,0,0,.978-5.359,35,35,0,0,0,.022-5.337,37.44,37.44,0,0,0-.765-5.294q-.574-2.637-1.34-5.232a13.251,13.251,0,0,0-1.191-2.913,6.292,6.292,0,0,0-1.638-1.892,6.145,6.145,0,0,0-2.189-1.043,11.632,11.632,0,0,0-2.892-.319h-.489a3.874,3.874,0,0,0-.533.043,31.751,31.751,0,0,0-3.294.233,7.864,7.864,0,0,0-2.618.787,6.225,6.225,0,0,0-2.04,1.745,10.922,10.922,0,0,0-1.575,3.1,51.142,51.142,0,0,0-1.87,6.933A28.749,28.749,0,0,0,1001.365,373.016Z" transform="translate(-713.388 -233.912)" fill="#fff"/>
    <path id="Tracé_25" data-name="Tracé 25" d="M1030.688,402.954q-.51-1.061-.892-1.829t-.724-1.489q.084-1.148.256-2.338a11.618,11.618,0,0,0,.086-2.424,59.448,59.448,0,0,1-.106-6.933q.146-3.446.445-6.933a44.493,44.493,0,0,0,.108-5.317q-.106-2.637-.022-5.317.086-5.019-.213-9.952t-.765-9.911a39.358,39.358,0,0,1-.149-5.317q.106-2.635.106-5.358a5.562,5.562,0,0,1,1.383-.384,10.556,10.556,0,0,1,1.34-.084,15.824,15.824,0,0,1,2.02.127,15.516,15.516,0,0,0,1.978.127H1036a7.583,7.583,0,0,1,.787-.041h.829q1.106,0,2.232.041t2.234.043h.617a4.781,4.781,0,0,0,.616-.043h.384q1.23,0,1.53.511a3.692,3.692,0,0,1,.17,1.956,9.085,9.085,0,0,0,.192,2.553q.275,1.276.446,2.551.21,1.4.425,2.808t.3,2.807q.213,3.787.34,7.507t.171,7.464q0,2.805-.192,5.593t-.36,5.593q-.089,1.915-.256,3.805t-.213,3.808q-.087,2.892-.043,5.72t0,5.72c0,.313.007.631.022.957a4.378,4.378,0,0,1-.063.957,3.9,3.9,0,0,1-.873,2.361,3.638,3.638,0,0,1-2.446.616q-1.276.044-2.551.043h-9.612Z" transform="translate(-692.311 -234.036)" fill="#fff"/>
    <path id="Tracé_26" data-name="Tracé 26" d="M1067.591,403.65q-4.425.171-8.655.3t-8.485.213a7.677,7.677,0,0,1-1.575-.191,2.163,2.163,0,0,1-1.316-.745.971.971,0,0,1-.278-.7,1.937,1.937,0,0,1,.213-.745,4.667,4.667,0,0,1,.468-.745c.183-.241.347-.474.489-.7q1.915-3.02,3.85-5.955t3.637-6.039q2-3.7,3.72-7.464t3.553-7.55c.14-.282.3-.558.467-.829a2.433,2.433,0,0,0,.34-.872,5.18,5.18,0,0,0,.044-1.149,3.106,3.106,0,0,0-.256-1.062q-1.234-2.169-2.6-4.212a28.214,28.214,0,0,1-2.338-4.253,30.624,30.624,0,0,0-1.723-3.212q-.957-1.551-1.978-3.04t-2.042-2.956q-1.021-1.467-1.914-3.042-1.148-1.957-2.254-3.934t-2.339-4.232q1.573-.255,2.913-.532a19.4,19.4,0,0,1,2.659-.362q2.382-.126,4.721-.17t4.72-.043a10.43,10.43,0,0,1,1.659.108,2.576,2.576,0,0,1,1.086.424,2.84,2.84,0,0,1,.786.914,16.906,16.906,0,0,1,.765,1.575q.6,1.361,1.3,2.68t1.383,2.678q.383.809.744,1.616T1070.1,351q.339.6.7,1.148c.239.369.476.739.7,1.106q.935,1.36,1.893,2.764t2.064,3.019q2.422-4.8,4.742-9.463t4.742-9.506a10.1,10.1,0,0,0,1.168-.254,4.86,4.86,0,0,1,1.3-.171q3.231-.084,6.422-.148t6.423-.065a5.18,5.18,0,0,1,1.532.213,1.312,1.312,0,0,1,.849,1.149c-.4.737-.771,1.418-1.127,2.042s-.687,1.262-1,1.913q-1.7,3.658-3.572,7.168t-3.956,6.953q-1.7,2.808-3.234,5.678t-3.147,5.72a2.528,2.528,0,0,0,.084,2.808q.722,1.064,1.362,2.189a12.7,12.7,0,0,0,1.489,2.105,31.616,31.616,0,0,1,2.4,3.169q1.086,1.64,2.062,3.34t1.937,3.445q.955,1.744,1.978,3.4,1.613,2.637,3.04,5.337t2.913,5.423a5.848,5.848,0,0,1-2.381,1.383,10.12,10.12,0,0,1-2.764.362h-.533a3.4,3.4,0,0,1-.53-.043c-.369-.029-.722-.043-1.064-.043h-1.063q-1.744,0-3.424.106t-3.423.276a1.481,1.481,0,0,0-.255.022,1.659,1.659,0,0,1-.256.021,4.274,4.274,0,0,1-2.978-1,8.005,8.005,0,0,1-1.827-2.488q-1.915-4-3.7-8l-3.743-8.379q-.68,1.234-1.233,2.234t-1.019,1.978q-1.489,3.231-2.915,6.464t-2.786,6.507a3.7,3.7,0,0,0-.234,1.213A14.474,14.474,0,0,1,1067.591,403.65Z" transform="translate(-683.748 -234.009)" fill="#fff"/>
  </g>
</svg>
