<svg id="Groupe_10" data-name="Groupe 10" xmlns="http://www.w3.org/2000/svg" width="210" height="99.635" viewBox="0 0 210 99.635">
  <rect id="Rectangle_1" data-name="Rectangle 1" width="210" height="99.635" transform="translate(0 0)" fill="#191919"/>
  <g id="Groupe_3" data-name="Groupe 3" transform="translate(13.551 14.902)">
    <path id="Tracé_15" data-name="Tracé 15" d="M823.967,295.252a2.632,2.632,0,0,1-.927.4,4.716,4.716,0,0,1-.909.09c-.144,0-.286,0-.423-.009s-.274-.009-.406-.009h-.162q-.846,0-1.665-.063t-1.665-.134a3.329,3.329,0,0,1-1.215-.315,1.647,1.647,0,0,1-.783-1.053,5.216,5.216,0,0,0-.6-1.234q-.387-.585-.747-1.179-.63-1.1-1.278-2.187t-1.332-2.187q-.2-.306-.414-.576c-.144-.18-.27-.342-.378-.486q-.521.468-1.008.892t-.936.873a2.181,2.181,0,0,0-.567.927,3.4,3.4,0,0,0-.135,1.089q.036.577.036,1.134a9.1,9.1,0,0,1-.073,1.134q-.09.828-.243,1.629t-.3,1.593a8.228,8.228,0,0,1-1.8.162q-.576,0-1.215-.045t-1.26-.135q-.621-.09-1.215-.216a10.885,10.885,0,0,1-1.1-.288q.036-.846.081-1.71t.081-1.729q.018-.881.018-1.746t-.036-1.728q-.037-1.476-.09-2.944t-.09-2.943q-.037-.972-.036-1.953t.054-1.971q.072-1.44.2-2.871t.234-2.871q.071-.9.126-1.8t.126-1.872l2.484-.27q.487-.054.972-.117c.324-.042.648-.075.972-.1a2.441,2.441,0,0,1,.3-.017h.3a3.524,3.524,0,0,1,.964.134,2.441,2.441,0,0,1,.963.585q-.2,2.575-.414,5.284T808.016,280q1.027-1.367,1.936-2.619t1.845-2.475a29.483,29.483,0,0,1,1.944-2.268,15.24,15.24,0,0,0,1.134-1.386,8,8,0,0,0,.882-1.566,1.372,1.372,0,0,1,.4-.567,1.04,1.04,0,0,1,.63-.225q1.044-.037,2.088-.126t2.106-.09a13.085,13.085,0,0,1,1.692.108q.828.108,1.674.252a4.312,4.312,0,0,0-.2.54,1.041,1.041,0,0,1-.216.414q-1.187,1.333-2.358,2.628t-2.359,2.61q-.233.252-.441.522t-.4.576q-.684.972-1.332,1.944t-1.368,1.926a1.335,1.335,0,0,0-.3.657,1.035,1.035,0,0,0,.243.675q.486.685.953,1.368t.9,1.4q.666,1.08,1.287,2.188t1.287,2.187q.773,1.26,1.574,2.484t1.576,2.467a5.456,5.456,0,0,1,.4.792C823.712,294.7,823.834,294.976,823.967,295.252Z" transform="translate(-801.052 -268.195)" fill="#fff"/>
    <path id="Tracé_16" data-name="Tracé 16" d="M848.1,273.9v5.239q.252,0,1.1-.018t2.079-.054l2.745-.081,3.078-.09,3.078-.09,2.755-.081q1.242-.036,2.106-.063t1.134-.027a.965.965,0,0,1,.189-.018h.837a7.744,7.744,0,0,1,.7,2.673,9,9,0,0,1-.2,2.6q-.81-.018-1.53-.018t-1.422-.018l-.621.009q-.567.008-1.485.018l-2.115.018-2.5.018-2.647.018q-1.34.009-2.547.009h-1.845q-.854,0-1.494-.018c-.426-.011-.768-.024-1.025-.036a1.444,1.444,0,0,1-.441-.054,8.865,8.865,0,0,0-.063,1.638q.045.81.118,1.621t.116,1.62a7.224,7.224,0,0,1-.1,1.638q.09-.018,1.287-.045l3.114-.073,4.357-.1,5-.108,5.041-.108q2.484-.054,4.491-.09t3.34-.054q1.332-.018,1.6-.018a4.436,4.436,0,0,1,.775.054.877.877,0,0,1,.45.207.837.837,0,0,1,.225.441,3.677,3.677,0,0,1,.063.757q.019,1.044-.008,2.079t-.045,2.17h-2.431q-1.982.036-3.952.054t-3.951.018q-1.818,0-3.609-.018t-3.61-.018h-1.171q-1.746.018-3.456.081t-3.457.1q-.864.018-1.728.018H848.7q-1.638.036-3.276.045t-3.294.027a.828.828,0,0,0-.134.009,1.043,1.043,0,0,1-.135.009.864.864,0,0,1-.2-.018,1.221,1.221,0,0,1-.765-.225,1.109,1.109,0,0,1-.19-.765q.018-2.61.027-5.194t.045-5.193q.018-1.08.09-2.133t.054-2.115q-.019-1.3-.1-2.592t-.134-2.611q-.054-1.35-.081-2.691t-.045-2.691a1.416,1.416,0,0,1,.261-1.035,1.579,1.579,0,0,1,1.036-.315q.684-.036,1.386-.045t1.385-.027q.522-.018,1.819-.036t3.1-.027q1.809-.009,4.014-.009h8.677q2.079,0,4.024.009l3.654.018,3.024.018q1.315.009,2.151.027t1.036.036a1.018,1.018,0,0,1,.99.954q.126.864.243,1.71t.171,1.71a1.021,1.021,0,0,1-.279.864,1.521,1.521,0,0,1-.963.324q-.2.019-1.485.028t-3.259.027q-1.971.018-4.446.027t-5.031.027q-2.557.018-5.014.027l-4.4.018q-1.943.009-3.186.009Z" transform="translate(-815.811 -268.065)" fill="#fff"/>
    <path id="Tracé_17" data-name="Tracé 17" d="M929.114,268.994q-.738,2.088-1.4,4.032t-1.35,3.87q-.45,1.261-.909,2.5t-.909,2.484q-.361,1.026-.675,2.025t-.657,2.026q-.415,1.242-.828,2.457t-.81,2.457q-.27.829-.5,1.656t-.468,1.674a2.188,2.188,0,0,1-.712,1.134,1.972,1.972,0,0,1-1.269.4q-1.1-.037-2.178-.081t-2.178-.081a9.381,9.381,0,0,1-1.025-.072,1.415,1.415,0,0,1-.622-.225,1.223,1.223,0,0,1-.4-.5,8.915,8.915,0,0,1-.351-.945q-.7-2.142-1.341-4.284t-1.324-4.3q-1.08-3.438-2.241-6.805t-2.385-6.75q-.2-.576-.45-1.134t-.54-1.206a3.807,3.807,0,0,0,.585-.225,1.508,1.508,0,0,1,.568-.153q.917-.071,1.827-.1t1.827-.027c.276,0,.549.012.819.036s.543.036.82.036a1.3,1.3,0,0,1,1.422.954q.234.648.423,1.3t.4,1.323q.306.918.63,1.8t.594,1.8q.612,2.142,1.189,4.276t1.17,4.276q.143.5.306,1a7.326,7.326,0,0,0,.414,1q.162-.629.315-1.269t.351-1.269q.63-2.142,1.278-4.257t1.26-4.276q.36-1.188.63-2.395t.576-2.412a.339.339,0,0,0,.018-.108.359.359,0,0,1,.018-.108,8.173,8.173,0,0,0,.271-.972,2.181,2.181,0,0,1,.378-.864.665.665,0,0,1,.279-.243.834.834,0,0,1,.315-.062,1.847,1.847,0,0,1,.6.108,1.924,1.924,0,0,0,.621.108h.035c.2,0,.4,0,.595-.009s.39-.009.594-.009q.865,0,1.71.028t1.71.063a1.382,1.382,0,0,1,.468.126A4.887,4.887,0,0,0,929.114,268.994Z" transform="translate(-839.429 -268.184)" fill="#fff"/>
    <path id="Tracé_18" data-name="Tracé 18" d="M951.217,295.525q-.217-.449-.379-.774t-.306-.63c.024-.325.06-.654.108-.99a4.907,4.907,0,0,0,.036-1.026,25.3,25.3,0,0,1-.045-2.934q.063-1.458.19-2.934a19.1,19.1,0,0,0,.045-2.25q-.046-1.116-.009-2.25.036-2.124-.09-4.212t-.324-4.195a16.544,16.544,0,0,1-.063-2.25q.044-1.116.044-2.268a2.346,2.346,0,0,1,.585-.163,4.466,4.466,0,0,1,.567-.036,6.824,6.824,0,0,1,.855.054,6.532,6.532,0,0,0,.837.054h.2a3.042,3.042,0,0,1,.333-.018h.351q.468,0,.945.018t.945.018h.261a2.141,2.141,0,0,0,.261-.018h.162q.522,0,.648.216a1.57,1.57,0,0,1,.072.828,3.842,3.842,0,0,0,.081,1.08q.117.54.189,1.08.09.594.18,1.188c.061.4.1.792.126,1.188q.09,1.6.145,3.178t.072,3.159q0,1.187-.081,2.367T958,285.372q-.036.81-.108,1.611t-.089,1.611q-.037,1.224-.018,2.421t0,2.421c0,.133,0,.268.009.405a1.822,1.822,0,0,1-.027.405,1.65,1.65,0,0,1-.369,1,1.539,1.539,0,0,1-1.035.261q-.539.019-1.08.018h-4.068Z" transform="translate(-856.959 -268.27)" fill="#fff"/>
    <path id="Tracé_29" data-name="Tracé 29" d="M.851,34.785q-.217-.581-.379-1T.166,32.97c.024-.419.06-.845.108-1.28A8.194,8.194,0,0,0,.31,30.364Q.2,28.456.265,26.572t.189-3.793Q.544,21.313.5,19.87T.49,16.962Q.526,14.216.4,11.518T.076,6.1A27.6,27.6,0,0,1,.014,3.188Q.058,1.746.058.256A1.951,1.951,0,0,1,.643.046,3.473,3.473,0,0,1,1.21,0a5.3,5.3,0,0,1,.855.069A5.084,5.084,0,0,0,2.9.14h.2A2.361,2.361,0,0,1,3.433.116h.351q.468,0,.945.023t.945.023h.261A1.667,1.667,0,0,0,6.2.14h.162q.522,0,.648.279a2.588,2.588,0,0,1,.072,1.071,6.382,6.382,0,0,0,.081,1.4q.117.7.189,1.4.09.767.179,1.535t.126,1.535q.09,2.072.144,4.107t.072,4.084q0,1.535-.081,3.06t-.153,3.06q-.036,1.047-.108,2.083t-.089,2.083q-.037,1.582-.018,3.129t0,3.129c0,.171,0,.346.009.524a3.026,3.026,0,0,1-.027.524,2.514,2.514,0,0,1-.369,1.291A1.3,1.3,0,0,1,6,34.761q-.539.024-1.08.023H.851Z" transform="translate(177.158 20.069) rotate(90)" fill="#fff"/>
    <path id="Tracé_19" data-name="Tracé 19" d="M979.381,281.423q-.072,1.206-.108,2.232t-.108,2.034q-.054.72-.153,1.431t-.171,1.431q-.053.685-.161,1.359t-.189,1.359q-.081.685-.126,1.368a9.758,9.758,0,0,0,.009,1.386q.036.522.108,1.026t.162,1.044a1.353,1.353,0,0,0-.171.081.317.317,0,0,1-.154.046q-1.206-.091-2.4-.2t-2.4-.2a.373.373,0,0,0-.118-.018.392.392,0,0,1-.117-.017,4.359,4.359,0,0,0-.657-.063.624.624,0,0,1-.5-.189,1.583,1.583,0,0,1-.269-.657,5.467,5.467,0,0,1-.09-.747q-.037-.918-.036-1.828v-1.827q0-.27-.009-.531a2.91,2.91,0,0,1,.027-.513q.162-1.26.207-2.512t.036-2.511q-.008-1.26-.044-2.52t-.036-2.52q-.018-1.944-.081-3.862t-.1-3.88a8.927,8.927,0,0,1,.054-.972q.055-.486.126-.972a.784.784,0,0,1,.3-.54,1.483,1.483,0,0,1,.567-.252q.612-.126,1.206-.189a11.3,11.3,0,0,1,1.188-.063,10.214,10.214,0,0,1,1.6.126,10.1,10.1,0,0,1,1.6.4,1.523,1.523,0,0,1,.9.792q1.044,1.962,2.089,3.915t2.16,3.879a29.466,29.466,0,0,0,1.746,2.655q.935,1.269,1.908,2.529c.024-.168.042-.312.054-.432a3.471,3.471,0,0,0,.019-.36q.036-1.35.1-2.664t.045-2.646q-.018-1.476-.09-2.943t-.126-2.944c0-.12,0-.237-.009-.351a2.29,2.29,0,0,1,.009-.351,2.157,2.157,0,0,1,.243-1.035.807.807,0,0,1,.729-.315,1.557,1.557,0,0,1,.288.027l.342.063a3.52,3.52,0,0,0,.585.09c.185.012.375.018.567.018s.411-.006.621-.018.417-.03.621-.054c.1-.012.186-.021.27-.028s.168-.009.252-.009a7.4,7.4,0,0,1,.891.054c.294.036.591.078.892.126q.845.161.953,1.278a21.752,21.752,0,0,1,.091,3.178q-.073,1.575-.127,3.159-.053,1.242-.134,2.475t-.063,2.475q.036,2.251.108,4.447t.126,4.446q.036.973.054,1.953t.036,1.953q.017,1.278-1.152,1.278a.582.582,0,0,1-.163-.017q-1.08-.054-2.133-.118t-2.115-.081a2.539,2.539,0,0,1-1.341-.324,2.635,2.635,0,0,1-.91-1.009q-.414-.738-.828-1.449t-.846-1.431q-.81-1.35-1.629-2.673t-1.593-2.673q-.629-1.081-1.2-2.2T979.381,281.423Z" transform="translate(-864.961 -268.281)" fill="#fff"/>
    <path id="Tracé_20" data-name="Tracé 20" d="M809,360.614h6.715q.414,0,.81-.009t.81-.009c.168,0,.339,0,.513.009s.351.015.531.027a2.789,2.789,0,0,1,.64.09.68.68,0,0,1,.359.225.742.742,0,0,1,.136.405,3.3,3.3,0,0,1-.036.648q-.144,1.027-.252,2.026T819,365.96q-1.4-.036-2.719-.054t-2.629-.054q-.9-.037-1.773-.081c-.581-.03-1.167-.045-1.754-.045h-.5q-1.585.037-3.168.135t-3.169.207a1.587,1.587,0,0,1-.234.018h-.2a1.1,1.1,0,0,1-.909-.3,2.228,2.228,0,0,1-.261-1.161q-.09-1.962-.162-3.88t-.162-3.861q-.072-1.224-.18-2.422t-.18-2.421a6.583,6.583,0,0,1,.009-1.035q.044-.513.081-1.035c.012-.132.021-.264.027-.4s.009-.264.009-.4c-.024-.348-.054-.693-.089-1.035a7.318,7.318,0,0,1-.036-1.035q.017-1.692.063-3.348t.062-3.349a3.076,3.076,0,0,1,.153-.891,1.1,1.1,0,0,1,.513-.6h4.356a.347.347,0,0,0,.171-.045.244.244,0,0,1,.171-.027q.558.053.909.108a1.255,1.255,0,0,1,.558.207.854.854,0,0,1,.3.478,4.709,4.709,0,0,1,.126.918q.053,1.17.036,2.331t-.018,2.35q0,.414.036.846c.024.288.036.576.036.864q-.017,1.079-.054,2.133t-.018,2.115q.036,1.278.072,2.547t.126,2.547q.071,1.063.189,2.125T809,360.614Z" transform="translate(-800.977 -294.588)" fill="#fff"/>
    <path id="Tracé_21" data-name="Tracé 21" d="M842.558,340.493q.7,0,1.4.009t1.4.009h.909q.441,0,.891-.017a7.812,7.812,0,0,1,.837.036,1.2,1.2,0,0,1,.522.171,1.147,1.147,0,0,1,.36.405,5.641,5.641,0,0,1,.333.738q.576,1.548,1.215,3.051t1.215,3.052q.468,1.277.846,2.565t.81,2.584a6.883,6.883,0,0,0,.351.909q.205.441.387.891.719,1.819,1.413,3.609t1.412,3.591q.253.685.522,1.351t.576,1.314a3.677,3.677,0,0,1,.324,1.089,2.343,2.343,0,0,1-.179,1.179c-.073.024-.151.048-.234.072a.965.965,0,0,1-.27.036q-1.153-.037-2.3-.1t-2.3-.117h-.351a1.808,1.808,0,0,1-.351-.036,2.24,2.24,0,0,1-.828-.315,1.1,1.1,0,0,1-.432-.8q-.145-.684-.306-1.351t-.36-1.332a2.016,2.016,0,0,0-.45-.891,1.154,1.154,0,0,0-.828-.261,1.508,1.508,0,0,0-.27.018q-1.152.09-2.286.252t-2.286.252c-.169.013-.336.021-.5.028s-.336.009-.5.009c-.277,0-.553,0-.829-.009s-.557-.009-.845-.009q-.307.864-.63,1.728t-.594,1.782a1.4,1.4,0,0,1-.333.594.932.932,0,0,1-.621.216c-.228.024-.456.051-.684.081s-.456.051-.684.063q-1.836.143-3.673.216a1.938,1.938,0,0,1-.458-.054c-.151-.036-.3-.078-.441-.126a.638.638,0,0,1-.45-.9c.1-.312.186-.626.27-.945a7.937,7.937,0,0,1,.307-.927q.612-1.655,1.242-3.294t1.26-3.294q.575-1.476,1.143-2.953t1.125-2.97q.63-1.692,1.215-3.358t1.216-3.357q.414-1.134.864-2.242T842.558,340.493Zm1.3,16.274,2.016.108q1.008.053,2.106.108-.577-1.891-1.125-3.663t-1.107-3.628A26.775,26.775,0,0,0,844.4,353.5,15.185,15.185,0,0,0,843.854,356.767Z" transform="translate(-812.964 -295.207)" fill="#fff"/>
    <path id="Tracé_22" data-name="Tracé 22" d="M898.569,349.772q-.235-.018-.45-.036t-.415-.018h-.054l-1.89.036q-.936.018-1.89.054a3.344,3.344,0,0,1-.468-.036q-.36-.036-.765-.054A1.027,1.027,0,0,1,892,349.5a.878.878,0,0,1-.279-.6c-.031-.27-.063-.525-.1-.765a4.363,4.363,0,0,0-.567-1.611,2.222,2.222,0,0,0-1.306-.964q-.539-.161-1.089-.278a5.211,5.211,0,0,0-1.09-.118,3.244,3.244,0,0,0-1.935.612,5.012,5.012,0,0,0-1.4,1.512,11.333,11.333,0,0,0-.865,1.855,5.508,5.508,0,0,0-.306,2.052,19.276,19.276,0,0,1-.081,2.133q-.1,1.053-.117,2.133a12.078,12.078,0,0,0,.072,1.323q.071.657.162,1.3a2.611,2.611,0,0,0,.189.549,4.831,4.831,0,0,0,.513.892,5.68,5.68,0,0,0,.837.936,3.133,3.133,0,0,0,1.161.666,4.2,4.2,0,0,0,2,.486,4.557,4.557,0,0,0,3.133-1.205,7.332,7.332,0,0,0,.567-.594,1.964,1.964,0,0,0,.333-.558,1.757,1.757,0,0,0,.108-.622,3,3,0,0,0-.108-.747.543.543,0,0,1,.45-.7c.073-.012.144-.021.216-.028a1.577,1.577,0,0,0,.2-.027.4.4,0,0,1,.153.027.385.385,0,0,0,.153.028h.036a3.174,3.174,0,0,1,.648-.144,5.769,5.769,0,0,1,.63-.036,8.768,8.768,0,0,1,1.62.153,8.669,8.669,0,0,0,1.621.154h.072a.935.935,0,0,1,.792.351,1.187,1.187,0,0,1,.27.873,6.616,6.616,0,0,1-.675,2.394,10.574,10.574,0,0,1-1.412,2.088,9.206,9.206,0,0,1-1.819,1.674q-1.008.7-1.98,1.458a2.846,2.846,0,0,1-.954.315q-.685.135-1.467.225t-1.5.134q-.72.045-1.044.046-.792,0-1.422-.046c-.42-.029-.828-.078-1.224-.144a11.134,11.134,0,0,1-1.2-.27q-.6-.171-1.359-.441a7.88,7.88,0,0,1-3.024-1.855,10.385,10.385,0,0,1-2.035-2.934,23.386,23.386,0,0,1-1.521-4.348,13.712,13.712,0,0,1-.3-4.581,23.059,23.059,0,0,1,.7-3.96,13.36,13.36,0,0,1,1.431-3.376,11.828,11.828,0,0,1,2.322-2.772,14.273,14.273,0,0,1,3.375-2.17,1.184,1.184,0,0,1,.216-.072q1.206-.144,2.4-.3a18.8,18.8,0,0,1,2.385-.153,10.393,10.393,0,0,1,3.79.7,9.226,9.226,0,0,1,3.213,2.107,12.456,12.456,0,0,1,1.359,1.584,8.248,8.248,0,0,1,.891,1.593,9.363,9.363,0,0,1,.531,1.755,20.063,20.063,0,0,1,.3,2.07.425.425,0,0,1-.028.225A1.98,1.98,0,0,0,898.569,349.772Z" transform="translate(-828.975 -294.818)" fill="#fff"/>
    <path id="Tracé_23" data-name="Tracé 23" d="M957.5,366.182a1.14,1.14,0,0,0-.216.1.4.4,0,0,1-.2.063q-1.494-.018-2.961-.018t-2.961-.09a1.957,1.957,0,0,1-.891-.3,1.719,1.719,0,0,1-.657-.765q-.325-.757-.648-1.476t-.685-1.458q-.5-1.063-1.008-2.106t-1.026-2.107a.768.768,0,0,0-.549-.459q-.352-.063-.694-.1-1.349-.09-2.673-.162l-2.674-.144q-1.853-.091-3.708-.189t-3.726-.171h-.288q-.63,0-1.251.054t-1.251.09l-3.106.108-3.123.108-.612.036c-.2.012-.426.03-.666.054a16.3,16.3,0,0,1,.126,2.052q0,1.063.018,2.125t.108,2.115a10.119,10.119,0,0,0,.378,2.025,3.176,3.176,0,0,1-.748.63,1.967,1.967,0,0,1-.963.2q-.738-.073-1.449-.108l-1.449-.072q-.36-.019-.72-.054t-.72-.036a5.525,5.525,0,0,1-.711-.036.629.629,0,0,1-.387-.171.719.719,0,0,1-.162-.405,5.81,5.81,0,0,1-.036-.738q0-5-.009-9.946t-.063-9.947q0-.4-.027-.855c-.018-.306-.036-.618-.054-.936s-.036-.63-.053-.936-.033-.591-.046-.855q-.018-.216-.036-.441a2.588,2.588,0,0,1,0-.441,1.439,1.439,0,0,1,.252-.8,1.116,1.116,0,0,1,.774-.261c.108-.011.528-.024,1.26-.036s1.671-.024,2.817-.036,2.454-.027,3.924-.045l4.564-.054,4.716-.054q2.359-.027,4.419-.045t3.655-.027q1.593-.008,2.421-.009h.351a1.3,1.3,0,0,1,.243.018,17.481,17.481,0,0,1,3.772.486,11.229,11.229,0,0,1,3.538,1.548,14.8,14.8,0,0,1,2.16,1.746,6.957,6.957,0,0,1,1.548,2.358q.289.666.558,1.314a8.386,8.386,0,0,1,.432,1.351,6.273,6.273,0,0,1-1.692,6.139q-.36.378-.757.738t-.81.684a.842.842,0,0,0-.324.45.9.9,0,0,0,.054.522q.36,1.008.729,2.016t.81,1.98q.44.972.963,1.9a14.862,14.862,0,0,0,1.188,1.791,5.159,5.159,0,0,0,.351.45,3.644,3.644,0,0,1,.342.459,2.64,2.64,0,0,1,.252.522A1.527,1.527,0,0,1,957.5,366.182Zm-35.32-14.312h1.332q1.17,0,3.016.009t4.024.027q2.178.018,4.528.027t4.528.009q1.674,0,3.159-.009t2.628-.036q1.143-.027,1.881-.063a3.536,3.536,0,0,0,.9-.108,4.285,4.285,0,0,0,.928-.549,1.824,1.824,0,0,0,.621-.765,3.605,3.605,0,0,0,.243-1.279q.008-.684.027-1.368a1.089,1.089,0,0,0-.09-.486.678.678,0,0,0-.271-.36,2.691,2.691,0,0,0-.638-.639,4.387,4.387,0,0,0-.756-.432,3.9,3.9,0,0,0-.774-.252c-.258-.054-.484-.093-.675-.117q-.342-.054-1.431-.09t-2.664-.072q-1.576-.037-3.5-.063l-3.952-.054q-2.025-.027-4.005-.036t-3.672-.009q-1.945,0-3.286.018t-1.683.054q-.108,1.692-.216,3.34T922.18,351.871Z" transform="translate(-843.674 -294.667)" fill="#fff"/>
    <path id="Tracé_24" data-name="Tracé 24" d="M1008.8,353.31a6.073,6.073,0,0,1-.081,1.765,8.054,8.054,0,0,1-.585,1.836,4.922,4.922,0,0,0-.261.72c-.066.241-.129.48-.189.72a9.291,9.291,0,0,1-1.566,3.438,12.759,12.759,0,0,1-2.718,2.665q-.793.576-1.548,1.035a10.372,10.372,0,0,1-1.548.774,9.2,9.2,0,0,1-3.492.657,10.913,10.913,0,0,1-2.17-.216,14.039,14.039,0,0,1-2.133-.612q-.9-.325-1.792-.621a7.876,7.876,0,0,1-1.719-.819,8.707,8.707,0,0,1-1.935-1.548,7.357,7.357,0,0,1-1.341-2.07,13.562,13.562,0,0,1-.738-2.187,11.01,11.01,0,0,1-.306-2.3q-.018-.486-.063-.972t-.081-.972a10.833,10.833,0,0,1,.027-1.71q.081-.846.225-1.683l.287-1.674q.144-.838.216-1.683a5.153,5.153,0,0,1,.621-2.143,15.461,15.461,0,0,1,1.234-1.872,10.126,10.126,0,0,1,3.024-2.709,12.429,12.429,0,0,1,3.816-1.395l.333-.072a1.671,1.671,0,0,1,.351-.036h.108q.954.127,1.881.243t1.881.261a.847.847,0,0,1,.253.081.524.524,0,0,0,.234.063.162.162,0,0,0,.072-.018,2.155,2.155,0,0,1,.72-.126,2.283,2.283,0,0,1,.667.1,4.8,4.8,0,0,1,.63.243c.2.1.408.2.613.3a4.706,4.706,0,0,0,.63.261,7.108,7.108,0,0,1,1.548.756,4.677,4.677,0,0,1,1.242,1.188q.594.81,1.206,1.6a11.7,11.7,0,0,1,1.08,1.674,10.815,10.815,0,0,1,1.062,3.159A22.4,22.4,0,0,1,1008.8,353.31Zm-17.156.45a22.984,22.984,0,0,0,.136,2.854,7.231,7.231,0,0,0,.855,2.655,4.932,4.932,0,0,0,.936,1.26,3.624,3.624,0,0,0,1.1.711,4.47,4.47,0,0,0,1.306.306q.711.063,1.539.063a2.394,2.394,0,0,0,1.485-.4,2.688,2.688,0,0,0,.818-1.332q.108-.307.234-.586t.252-.585q.161-.431.333-.855a8.193,8.193,0,0,0,.3-.873,11.515,11.515,0,0,0,.414-2.268,14.8,14.8,0,0,0,.009-2.259,15.854,15.854,0,0,0-.324-2.241q-.243-1.116-.567-2.215a5.6,5.6,0,0,0-.5-1.233,2.662,2.662,0,0,0-.693-.8,2.6,2.6,0,0,0-.927-.441,4.924,4.924,0,0,0-1.224-.135h-.207a1.641,1.641,0,0,0-.226.018,13.434,13.434,0,0,0-1.394.1,3.328,3.328,0,0,0-1.108.333,2.635,2.635,0,0,0-.864.738,4.624,4.624,0,0,0-.667,1.314,21.636,21.636,0,0,0-.792,2.934A12.176,12.176,0,0,0,991.646,353.761Z" transform="translate(-869.756 -294.883)" fill="#fff"/>
    <path id="Tracé_25" data-name="Tracé 25" d="M1029.529,366.283q-.216-.449-.378-.774t-.306-.63q.036-.486.108-.99a4.915,4.915,0,0,0,.036-1.026,25.138,25.138,0,0,1-.045-2.934q.062-1.458.188-2.934a18.842,18.842,0,0,0,.046-2.25q-.045-1.116-.01-2.25.037-2.124-.09-4.212t-.324-4.195a16.653,16.653,0,0,1-.063-2.25q.045-1.115.045-2.268a2.351,2.351,0,0,1,.585-.163,4.467,4.467,0,0,1,.567-.036,6.692,6.692,0,0,1,.855.054,6.573,6.573,0,0,0,.837.054h.2a3.21,3.21,0,0,1,.333-.018h.351q.468,0,.945.018t.945.018h.261a2.024,2.024,0,0,0,.261-.018h.163q.521,0,.648.216a1.561,1.561,0,0,1,.072.828,3.84,3.84,0,0,0,.081,1.08q.116.54.189,1.08.089.595.18,1.189c.059.4.1.792.126,1.188q.09,1.6.144,3.178t.073,3.159q0,1.187-.081,2.367t-.152,2.367q-.038.81-.108,1.611t-.09,1.612q-.036,1.224-.018,2.421t0,2.421c0,.133,0,.267.009.405a1.844,1.844,0,0,1-.027.405,1.648,1.648,0,0,1-.37,1,1.539,1.539,0,0,1-1.035.261q-.54.019-1.08.018h-4.069Z" transform="translate(-886.306 -294.786)" fill="#fff"/>
    <path id="Tracé_26" data-name="Tracé 26" d="M1055.5,366.61q-1.873.072-3.663.126t-3.592.09a3.251,3.251,0,0,1-.667-.081.916.916,0,0,1-.557-.315.412.412,0,0,1-.117-.3.821.821,0,0,1,.09-.315,1.982,1.982,0,0,1,.2-.315q.116-.153.207-.3.81-1.278,1.63-2.52t1.539-2.556q.845-1.566,1.575-3.159t1.5-3.2c.059-.119.126-.236.2-.351a1.033,1.033,0,0,0,.144-.369,2.189,2.189,0,0,0,.019-.486,1.313,1.313,0,0,0-.108-.45q-.522-.918-1.1-1.783a11.935,11.935,0,0,1-.99-1.8,12.927,12.927,0,0,0-.729-1.359q-.4-.657-.837-1.287t-.864-1.251q-.432-.621-.81-1.287-.486-.828-.954-1.665t-.99-1.791q.666-.108,1.233-.225a8.21,8.21,0,0,1,1.125-.153q1.008-.053,2-.072t2-.018a4.415,4.415,0,0,1,.7.046,1.09,1.09,0,0,1,.459.179,1.2,1.2,0,0,1,.333.387,7.206,7.206,0,0,1,.324.667q.252.576.549,1.134t.585,1.134q.162.342.315.684t.315.667q.143.252.3.486c.1.156.2.313.3.468q.4.576.8,1.17t.874,1.278q1.025-2.033,2.007-4.005t2.007-4.024a4.276,4.276,0,0,0,.495-.108,2.058,2.058,0,0,1,.55-.072q1.368-.036,2.718-.063t2.719-.028a2.193,2.193,0,0,1,.648.09.555.555,0,0,1,.359.486c-.168.312-.326.6-.477.864s-.291.534-.423.81q-.721,1.548-1.512,3.034t-1.674,2.943q-.721,1.188-1.369,2.4t-1.332,2.421a1.07,1.07,0,0,0,.036,1.189q.306.45.577.927a5.38,5.38,0,0,0,.63.891,13.386,13.386,0,0,1,1.017,1.341q.46.694.873,1.414t.82,1.458q.4.738.837,1.44.683,1.116,1.287,2.259t1.233,2.3a2.477,2.477,0,0,1-1.008.585,4.285,4.285,0,0,1-1.17.153h-.226a1.44,1.44,0,0,1-.224-.018c-.156-.013-.306-.018-.45-.018h-.45q-.738,0-1.449.045t-1.449.117a.622.622,0,0,0-.108.009.7.7,0,0,1-.108.009,1.809,1.809,0,0,1-1.26-.423,3.386,3.386,0,0,1-.774-1.053q-.81-1.692-1.566-3.385l-1.584-3.546-.522.945q-.234.423-.431.837-.63,1.367-1.234,2.736t-1.179,2.754a1.563,1.563,0,0,0-.1.513A6.11,6.11,0,0,1,1055.5,366.61Z" transform="translate(-893.03 -294.807)" fill="#fff"/>
  </g>
</svg>
