<svg xmlns="http://www.w3.org/2000/svg" width="88.55" height="57.081" viewBox="0 0 88.55 57.081">
  <g id="Groupe_19" data-name="Groupe 19" transform="translate(-1301.45 -1139.142)">
    <path id="Tracé_14" data-name="Tracé 14" d="M809.085,829.036c-19.58,0-37.208-11.063-43.865-27.528l-.408-1.012.408-1.013c6.658-16.465,24.285-27.527,43.865-27.527s37.208,11.062,43.867,27.527l.409,1.013-.409,1.013C846.293,817.973,828.664,829.036,809.085,829.036ZM770.662,800.5c6.146,13.883,21.434,23.135,38.424,23.135s32.278-9.252,38.427-23.135c-6.148-13.883-21.437-23.135-38.427-23.135S776.807,786.612,770.662,800.5Z" transform="translate(536.638 367.187)"/>
    <circle id="Ellipse_1" data-name="Ellipse 1" cx="20.593" cy="20.593" r="20.593" transform="translate(1325.132 1147.089)"/>
  </g>
</svg>
