<svg xmlns="http://www.w3.org/2000/svg" width="49.863" height="32.143" viewBox="0 0 49.863 32.143">
  <g id="Groupe_23" data-name="Groupe 23" transform="translate(-1301.45 -1139.142)">
    <path id="Tracé_14" data-name="Tracé 14" d="M789.743,804.1c-11.026,0-20.952-6.23-24.7-15.5l-.23-.57.23-.571c3.749-9.272,13.675-15.5,24.7-15.5s20.952,6.229,24.7,15.5l.231.571-.231.571C810.695,797.868,800.768,804.1,789.743,804.1Zm-21.637-16.071c3.461,7.818,12.07,13.028,21.637,13.028s18.176-5.21,21.638-13.028C807.919,780.209,799.31,775,789.743,775S771.567,780.209,768.106,788.026Z" transform="translate(536.638 367.187)"/>
    <circle id="Ellipse_1" data-name="Ellipse 1" cx="11.596" cy="11.596" r="11.596" transform="translate(1314.786 1143.617)"/>
  </g>
</svg>
