<svg xmlns="http://www.w3.org/2000/svg" width="179.454" height="33.211" viewBox="0 0 179.454 33.211">
  <g id="Groupe_13" data-name="Groupe 13" transform="translate(0 0)">
    <path id="Tracé_31" data-name="Tracé 31" d="M1587.427,315.027h5c.477,0,.95,0,1.42.018a1.809,1.809,0,0,1,.812.182,1.106,1.106,0,0,1,.492.415c-.146.386-.27.721-.375,1s-.211.568-.309.852a4.12,4.12,0,0,0-.138.459c-.036.149-.069.3-.1.459q-.513,2.239-1.015,4.459t-1.034,4.456q-.617,2.517-1.249,5.013t-1.183,5.035c-.24,1.125-.43,2.246-.565,3.371s-.295,2.253-.48,3.393c-.073.466-.164.936-.277,1.405s-.229.968-.343,1.493c-.156,0-.316,0-.48.011s-.324.011-.481.011a35.779,35.779,0,0,1-3.9-.211q-1.939-.213-3.969-.259-.339-1.916-.637-3.815t-.641-3.786q-.344-1.889-.768-3.779t-1.045-3.742a6.211,6.211,0,0,0-.779,1.471,8.818,8.818,0,0,0-.4,1.558c-.083.5-.178.99-.287,1.471s-.215.968-.331,1.453q-.508,2.452-1,4.874t-.918,4.874a5.2,5.2,0,0,1-1.022.189,13.023,13.023,0,0,1-1.365.066c-.513,0-1.063-.022-1.653-.066s-1.179-.106-1.773-.189-1.169-.189-1.737-.309-1.1-.262-1.6-.419l-.179-1.045a10.534,10.534,0,0,1-.138-1.107,38.728,38.728,0,0,0-.619-5.857q-.535-2.889-1.066-5.77a5.245,5.245,0,0,0-.309-.979c-.135-.313-.262-.633-.375-.961q-.491-1.365-.862-2.719a19.311,19.311,0,0,1-.546-2.825,42.668,42.668,0,0,0-.714-4.216q-.458-2.08-.885-4.212c-.043-.211-.08-.433-.116-.663s-.076-.466-.116-.724c.637-.029,1.245-.055,1.824-.084l1.736-.087,1.151-.084c.385-.029.768-.073,1.154-.127a1.039,1.039,0,0,1,.211-.022h.215a2.192,2.192,0,0,1,1.132.288,2.155,2.155,0,0,1,.808.928,6.488,6.488,0,0,1,.448,1.15,4.867,4.867,0,0,0,.492,1.132,4.092,4.092,0,0,1,.5,1.354c.077.462.153.928.222,1.4.088.47.185.939.3,1.405s.207.939.28,1.409q.317,1.966.608,3.913a31.718,31.718,0,0,1,.328,3.957.536.536,0,0,0,.088.258c.054.1.141.255.255.47q.983-4.5,1.911-8.8t1.864-8.631h3.968c.342,0,.689.007,1.045.022a1.719,1.719,0,0,1,1.249.524,3.5,3.5,0,0,1,.747,1.216,6.974,6.974,0,0,1,.375,1.493c.07.521.121.972.15,1.354a32.813,32.813,0,0,0,.426,3.4q.3,1.671.681,3.338t.8,3.327q.415,1.66.757,3.349,1.218-4.527,2.356-9.014T1587.427,315.027Z" transform="translate(-1557.376 -314.619)"/>
    <path id="Tracé_32" data-name="Tracé 32" d="M1597.425,331.2a7.177,7.177,0,0,1-.094,2.09,9.649,9.649,0,0,1-.692,2.173,5.5,5.5,0,0,0-.309.855c-.08.284-.153.568-.226.852a11,11,0,0,1-1.856,4.074,14.935,14.935,0,0,1-3.222,3.156c-.623.455-1.234.866-1.831,1.227a12.019,12.019,0,0,1-1.835.917,11.409,11.409,0,0,1-1.952.579,11.2,11.2,0,0,1-2.187.2,12.927,12.927,0,0,1-2.57-.255,16.511,16.511,0,0,1-2.527-.724q-1.07-.388-2.122-.735a9.489,9.489,0,0,1-2.039-.972,10.444,10.444,0,0,1-2.293-1.835,8.646,8.646,0,0,1-1.587-2.454,16.031,16.031,0,0,1-.877-2.592,13.244,13.244,0,0,1-.361-2.719c-.015-.382-.04-.768-.077-1.15s-.066-.768-.094-1.154a12.484,12.484,0,0,1,.032-2.024c.062-.67.154-1.332.266-1.995l.343-1.984c.113-.662.2-1.325.254-1.995a6.08,6.08,0,0,1,.735-2.537,18.6,18.6,0,0,1,1.46-2.221,12.052,12.052,0,0,1,3.586-3.207,14.623,14.623,0,0,1,4.521-1.653l.393-.087a2.019,2.019,0,0,1,.419-.044h.127q1.13.153,2.228.288t2.228.309a.937.937,0,0,1,.3.1.665.665,0,0,0,.28.073.194.194,0,0,0,.084-.022,2.576,2.576,0,0,1,1.642-.029,5.314,5.314,0,0,1,.747.288c.244.113.484.229.728.349a4.946,4.946,0,0,0,.747.31,8.564,8.564,0,0,1,1.834.9,5.488,5.488,0,0,1,1.471,1.405q.7.961,1.427,1.9a13.856,13.856,0,0,1,1.282,1.984,12.889,12.889,0,0,1,1.259,3.742A26.665,26.665,0,0,1,1597.425,331.2Zm-20.328.532a27.48,27.48,0,0,0,.16,3.382,8.535,8.535,0,0,0,1.016,3.145,5.761,5.761,0,0,0,1.107,1.492,4.33,4.33,0,0,0,1.3.845,5.415,5.415,0,0,0,1.547.36c.561.051,1.169.076,1.821.076a2.84,2.84,0,0,0,1.762-.47,3.189,3.189,0,0,0,.968-1.58c.088-.24.178-.473.281-.692s.2-.451.3-.7c.127-.339.258-.677.393-1.012s.251-.681.353-1.034a13.911,13.911,0,0,0,.491-2.687,17.85,17.85,0,0,0,.007-2.679,18.245,18.245,0,0,0-.382-2.654c-.192-.881-.415-1.758-.673-2.625a6.347,6.347,0,0,0-.6-1.46,3,3,0,0,0-1.918-1.474,5.869,5.869,0,0,0-1.449-.16h-.247a1.848,1.848,0,0,0-.265.022,16.435,16.435,0,0,0-1.653.116,3.964,3.964,0,0,0-1.314.4,3.15,3.15,0,0,0-1.023.874,5.522,5.522,0,0,0-.79,1.558,25.582,25.582,0,0,0-.935,3.477A14.414,14.414,0,0,0,1577.1,331.73Z" transform="translate(-1527.613 -314.558)"/>
    <path id="Tracé_33" data-name="Tracé 33" d="M1627.446,347.011a1.585,1.585,0,0,0-.255.117.472.472,0,0,1-.237.076q-1.769-.022-3.506-.022t-3.509-.106a2.3,2.3,0,0,1-1.055-.353,2.01,2.01,0,0,1-.779-.907q-.389-.9-.769-1.747c-.254-.572-.528-1.147-.812-1.729-.4-.837-.8-1.671-1.194-2.494s-.8-1.66-1.215-2.5a.9.9,0,0,0-.652-.542c-.277-.051-.549-.091-.819-.12-1.067-.069-2.122-.135-3.167-.189s-2.1-.116-3.167-.171q-2.2-.109-4.393-.226t-4.416-.2h-.342c-.5,0-.994.018-1.482.062s-.986.08-1.485.106l-3.677.131q-1.824.06-3.7.127l-.724.04c-.244.015-.506.036-.79.065a19.5,19.5,0,0,1,.149,2.432c0,.837.007,1.678.022,2.515s.058,1.675.127,2.508a12.333,12.333,0,0,0,.448,2.4,3.758,3.758,0,0,1-.885.746,2.336,2.336,0,0,1-1.143.237q-.873-.087-1.715-.131c-.561-.025-1.136-.055-1.718-.084q-.426-.022-.852-.066c-.284-.026-.568-.04-.856-.04a6.355,6.355,0,0,1-.841-.044.731.731,0,0,1-.459-.2.864.864,0,0,1-.192-.481,6.838,6.838,0,0,1-.04-.874q0-5.93-.011-11.784t-.077-11.784q0-.47-.032-1.016c-.022-.36-.04-.732-.062-1.107s-.043-.746-.065-1.11-.04-.7-.055-1.012l-.04-.524a3.088,3.088,0,0,1,0-.521,1.69,1.69,0,0,1,.3-.95,1.326,1.326,0,0,1,.918-.309c.127-.015.626-.029,1.493-.044s1.98-.029,3.338-.044,2.909-.029,4.649-.051l5.41-.065,5.588-.062q2.791-.033,5.235-.055t4.332-.033q1.884-.011,2.868-.011h.416a1.485,1.485,0,0,1,.287.022,20.862,20.862,0,0,1,4.47.575,13.339,13.339,0,0,1,4.19,1.835,17.275,17.275,0,0,1,2.559,2.071,8.2,8.2,0,0,1,1.835,2.792c.229.528.448,1.045.663,1.558a10.092,10.092,0,0,1,.51,1.6,7.434,7.434,0,0,1-2,7.273c-.288.3-.586.59-.9.877s-.63.553-.958.808a1,1,0,0,0-.386.535,1.08,1.08,0,0,0,.066.619q.426,1.191.862,2.388c.292.8.612,1.576.961,2.344s.728,1.518,1.139,2.253a18.473,18.473,0,0,0,1.409,2.122,6.216,6.216,0,0,0,.415.531,4.892,4.892,0,0,1,.408.542,3.382,3.382,0,0,1,.3.619A1.846,1.846,0,0,1,1627.446,347.011Zm-41.85-16.957h1.58q1.388,0,3.572.011c1.46.007,3.047.018,4.769.033s3.51.026,5.363.033,3.644.011,5.365.011q1.982,0,3.742-.011t3.116-.044q1.354-.033,2.227-.076a4.037,4.037,0,0,0,1.067-.127,4.944,4.944,0,0,0,1.1-.652,2.16,2.16,0,0,0,.736-.906,4.227,4.227,0,0,0,.288-1.514c.007-.539.018-1.078.033-1.62a1.291,1.291,0,0,0-.106-.575.8.8,0,0,0-.32-.426,3.186,3.186,0,0,0-.757-.757,5.074,5.074,0,0,0-.9-.513,4.748,4.748,0,0,0-.917-.3c-.306-.066-.575-.109-.8-.138-.269-.044-.837-.076-1.7-.106s-1.911-.058-3.156-.087-2.629-.051-4.15-.073l-4.681-.065q-2.4-.033-4.747-.044t-4.35-.007c-1.536,0-2.832,0-3.892.018s-1.726.036-1.995.066q-.131,2-.255,3.957C1585.746,327.441,1585.669,328.748,1585.6,330.055Z" transform="translate(-1505.588 -314.867)"/>
    <path id="Tracé_34" data-name="Tracé 34" d="M1618.6,346.693a3.146,3.146,0,0,1-1.1.47,5.725,5.725,0,0,1-1.077.105c-.167,0-.335,0-.5-.011s-.323-.011-.48-.011h-.193c-.666,0-1.325-.025-1.973-.073s-1.3-.106-1.973-.16a3.924,3.924,0,0,1-1.438-.375,1.952,1.952,0,0,1-.928-1.245,6.2,6.2,0,0,0-.714-1.463c-.306-.462-.6-.928-.889-1.4q-.742-1.3-1.514-2.592c-.51-.859-1.038-1.722-1.577-2.588a8.206,8.206,0,0,0-.492-.685c-.171-.215-.32-.4-.448-.575-.412.368-.812.721-1.194,1.056s-.754.677-1.11,1.034a2.568,2.568,0,0,0-.67,1.1,3.929,3.929,0,0,0-.16,1.289c.026.455.04.9.04,1.343a10.6,10.6,0,0,1-.084,1.347c-.073.652-.168,1.3-.288,1.929s-.24,1.263-.353,1.886a9.553,9.553,0,0,1-2.133.193c-.455,0-.935-.018-1.438-.051s-1-.091-1.493-.16-.972-.156-1.442-.258a12.962,12.962,0,0,1-1.3-.339c.026-.67.058-1.347.095-2.028s.069-1.365.1-2.05.022-1.383.022-2.068-.015-1.365-.044-2.046c-.026-1.169-.062-2.33-.106-3.491s-.077-2.319-.105-3.488q-.044-1.147-.044-2.312t.066-2.337c.055-1.136.135-2.272.233-3.4s.192-2.264.277-3.4c.058-.71.109-1.423.148-2.133s.1-1.449.15-2.217l2.945-.32c.382-.044.768-.091,1.15-.138s.768-.091,1.155-.12c.113-.011.229-.018.353-.018h.35a4.078,4.078,0,0,1,1.142.16,2.83,2.83,0,0,1,1.14.692q-.235,3.052-.491,6.261t-.51,6.622q1.212-1.622,2.294-3.1t2.184-2.934a33.852,33.852,0,0,1,2.3-2.687,17.9,17.9,0,0,0,1.343-1.645,9.475,9.475,0,0,0,1.045-1.853,1.664,1.664,0,0,1,.47-.673,1.236,1.236,0,0,1,.747-.266c.826-.029,1.649-.08,2.475-.149s1.656-.105,2.494-.105a15.083,15.083,0,0,1,2.005.127c.655.084,1.318.182,1.984.3a5.058,5.058,0,0,0-.233.637,1.216,1.216,0,0,1-.258.491q-1.4,1.578-2.792,3.116t-2.8,3.091c-.185.2-.356.408-.52.619s-.323.44-.48.684c-.543.768-1.067,1.536-1.58,2.3s-1.052,1.525-1.62,2.283a1.581,1.581,0,0,0-.353.775,1.236,1.236,0,0,0,.288.8c.386.543.761,1.081,1.132,1.62s.724,1.1,1.066,1.664q.786,1.283,1.525,2.592c.492.877,1,1.74,1.525,2.592q.918,1.5,1.868,2.945t1.864,2.923a6.477,6.477,0,0,1,.481.936Q1618.37,346.2,1618.6,346.693Z" transform="translate(-1467.011 -314.804)"/>
    <path id="Tracé_35" data-name="Tracé 35" d="M1621.072,325.362c-.553.044-1.114.087-1.674.138s-1.125.1-1.7.16a.352.352,0,0,1-.149.022.943.943,0,0,1-.747-.288,2.105,2.105,0,0,1-.4-.7,4.554,4.554,0,0,0-1.642-2.366,4.647,4.647,0,0,0-2.774-.812,4.1,4.1,0,0,0-1.023.12,2,2,0,0,0-1.365,1.012,1.734,1.734,0,0,0-.277.812,3.4,3.4,0,0,0,.168,1.183,4.267,4.267,0,0,0,.546,1.1,4.216,4.216,0,0,0,.852.917,3.785,3.785,0,0,0,1.078.619c.841.313,1.678.608,2.519.888s1.67.579,2.493.906c.553.226,1.1.459,1.642.692a16.012,16.012,0,0,1,1.58.79,12.28,12.28,0,0,1,1.459.979,7.776,7.776,0,0,1,1.271,1.27,9.918,9.918,0,0,1,1.984,3.913,8.03,8.03,0,0,1-.258,4.383c-.2.582-.382,1.165-.554,1.74a4.25,4.25,0,0,1-.917,1.609,8,8,0,0,1-1.9,1.58,9.011,9.011,0,0,1-2.243.939q-1.255.36-2.526.6l-2.548.47a.908.908,0,0,1-.255.04h-.259c-.185,0-.368-.007-.553-.022s-.364-.033-.535-.062c-.637-.087-1.282-.171-1.929-.259s-1.286-.189-1.919-.317a15.645,15.645,0,0,1-1.867-.5,10.558,10.558,0,0,1-1.791-.8c-.371-.211-.746-.437-1.132-.67a3.072,3.072,0,0,1-.917-.844,26.915,26.915,0,0,1-1.824-2.974,14.531,14.531,0,0,1-1.224-3.254,1.865,1.865,0,0,1,.051-1.227,1.377,1.377,0,0,1,.972-.648,9.647,9.647,0,0,1,1.416-.28,12.5,12.5,0,0,1,1.42-.084,14.82,14.82,0,0,1,1.762.106c.575.073,1.161.164,1.759.277a.717.717,0,0,1,.52.331.927.927,0,0,1,.12.608,2.776,2.776,0,0,0,.382,1.653,4.634,4.634,0,0,0,1.172,1.314,6.221,6.221,0,0,0,1.591.874,4.678,4.678,0,0,0,1.631.32,5.764,5.764,0,0,0,2.089-.375,2.711,2.711,0,0,0,1.5-1.438,2.042,2.042,0,0,0-.28-2.388,5.256,5.256,0,0,0-1.514-1.292,13.483,13.483,0,0,0-1.791-.841q-1.557-.623-3.113-1.216t-3.094-1.325a13.152,13.152,0,0,1-2.333-1.394,8.711,8.711,0,0,1-1.911-1.973,10.393,10.393,0,0,1-1.238-2.432,8.458,8.458,0,0,1-.481-2.592,8.263,8.263,0,0,1,.364-2.6,7.972,7.972,0,0,1,1.27-2.465,4.86,4.86,0,0,1,1.107-1.067q.622-.426,1.3-.852a9.605,9.605,0,0,1,1.663-.885,15.921,15.921,0,0,1,1.725-.608q.879-.257,1.784-.43l1.8-.339c.455-.073.906-.131,1.354-.171s.9-.066,1.354-.066a15.059,15.059,0,0,1,3.029.309,10.729,10.729,0,0,1,2.8.994,8.33,8.33,0,0,1,2.3,1.78,7.4,7.4,0,0,1,1.536,2.654,13.8,13.8,0,0,1,.481,1.784c.12.6.233,1.2.331,1.8a1.065,1.065,0,0,1-.161.917,1.258,1.258,0,0,1-.884.339q-.235.022-.481.033c-.164.007-.324.011-.481.011-.24,0-.491,0-.746-.011s-.506-.011-.747-.011Z" transform="translate(-1445.654 -314.867)"/>
  </g>
</svg>
