<svg id="Groupe_13" data-name="Groupe 13" xmlns="http://www.w3.org/2000/svg" width="274.132" height="50.733" viewBox="0 0 274.132 50.733">
  <path id="Tracé_31" data-name="Tracé 31" d="M1603.282,315.061h7.641c.729,0,1.451.005,2.169.028a2.763,2.763,0,0,1,1.24.278,1.69,1.69,0,0,1,.751.634c-.223.589-.412,1.1-.573,1.535s-.322.867-.473,1.3a6.255,6.255,0,0,0-.211.7c-.056.228-.105.462-.146.7q-.784,3.42-1.551,6.812t-1.579,6.807q-.943,3.845-1.908,7.657t-1.807,7.691c-.367,1.719-.656,3.431-.862,5.15s-.45,3.442-.733,5.183c-.111.712-.251,1.429-.423,2.147s-.351,1.479-.523,2.28c-.238,0-.483.005-.733.017s-.5.017-.734.017a54.643,54.643,0,0,1-5.961-.322q-2.962-.325-6.062-.395-.517-2.928-.973-5.828t-.979-5.783q-.526-2.886-1.174-5.772t-1.6-5.717a9.49,9.49,0,0,0-1.19,2.247,13.477,13.477,0,0,0-.606,2.38c-.127.762-.271,1.513-.438,2.247s-.328,1.479-.506,2.219q-.776,3.745-1.529,7.446t-1.4,7.446a7.935,7.935,0,0,1-1.562.289,19.9,19.9,0,0,1-2.086.1c-.784,0-1.624-.033-2.524-.1s-1.8-.161-2.708-.289-1.785-.289-2.653-.473-1.685-.4-2.446-.639l-.273-1.6a16.108,16.108,0,0,1-.211-1.69,59.149,59.149,0,0,0-.945-8.948q-.817-4.413-1.629-8.814a8,8,0,0,0-.473-1.5c-.206-.478-.4-.968-.573-1.468q-.75-2.085-1.317-4.154a29.485,29.485,0,0,1-.834-4.315,65.208,65.208,0,0,0-1.091-6.44q-.7-3.178-1.352-6.434c-.066-.323-.122-.662-.178-1.012s-.116-.712-.178-1.107c.974-.045,1.9-.083,2.786-.128l2.652-.134,1.758-.128c.589-.045,1.173-.111,1.763-.195a1.588,1.588,0,0,1,.322-.033h.328a3.349,3.349,0,0,1,1.729.439,3.291,3.291,0,0,1,1.234,1.418,9.911,9.911,0,0,1,.685,1.757,7.431,7.431,0,0,0,.751,1.729,6.249,6.249,0,0,1,.767,2.069c.117.706.233,1.418.34,2.135.134.717.283,1.435.456,2.146s.316,1.435.428,2.152q.485,3,.929,5.978a48.466,48.466,0,0,1,.5,6.045.818.818,0,0,0,.134.395c.082.15.216.389.389.717q1.5-6.881,2.92-13.441t2.847-13.185h6.062c.522,0,1.052.011,1.6.033a2.625,2.625,0,0,1,1.907.8,5.348,5.348,0,0,1,1.141,1.857,10.649,10.649,0,0,1,.572,2.28c.106.8.185,1.485.229,2.069a50.169,50.169,0,0,0,.65,5.2q.451,2.552,1.04,5.1t1.224,5.083q.634,2.536,1.156,5.116,1.86-6.915,3.6-13.769T1603.282,315.061Z" transform="translate(-1557.376 -314.438)"/>
  <path id="Tracé_32" data-name="Tracé 32" d="M1612.608,339.753a10.958,10.958,0,0,1-.145,3.192,14.737,14.737,0,0,1-1.057,3.32,8.355,8.355,0,0,0-.473,1.307c-.122.434-.233.867-.345,1.3a16.807,16.807,0,0,1-2.836,6.223,22.816,22.816,0,0,1-4.922,4.821c-.951.7-1.885,1.324-2.8,1.874a18.345,18.345,0,0,1-2.8,1.4,17.428,17.428,0,0,1-2.981.884,17.117,17.117,0,0,1-3.342.306,19.748,19.748,0,0,1-3.926-.389,25.222,25.222,0,0,1-3.859-1.107q-1.635-.592-3.242-1.123a14.5,14.5,0,0,1-3.114-1.485,15.956,15.956,0,0,1-3.5-2.8,13.2,13.2,0,0,1-2.425-3.748,24.483,24.483,0,0,1-1.34-3.959,20.234,20.234,0,0,1-.551-4.154c-.022-.584-.062-1.173-.117-1.757s-.1-1.173-.145-1.763a19.08,19.08,0,0,1,.05-3.092c.095-1.023.234-2.035.406-3.047l.523-3.031c.172-1.012.3-2.024.389-3.047a9.29,9.29,0,0,1,1.123-3.876,28.4,28.4,0,0,1,2.23-3.392,18.409,18.409,0,0,1,5.478-4.9,22.343,22.343,0,0,1,6.906-2.525c.194-.045.4-.089.6-.133a3.086,3.086,0,0,1,.64-.067h.194q1.727.233,3.4.439t3.4.473a1.43,1.43,0,0,1,.457.15,1.017,1.017,0,0,0,.428.111.294.294,0,0,0,.128-.033,3.936,3.936,0,0,1,2.508-.044,8.12,8.12,0,0,1,1.141.439c.372.172.739.35,1.111.534a7.56,7.56,0,0,0,1.141.473,13.083,13.083,0,0,1,2.8,1.373,8.389,8.389,0,0,1,2.247,2.147q1.077,1.468,2.18,2.9a21.153,21.153,0,0,1,1.958,3.031,19.7,19.7,0,0,1,1.924,5.717A40.749,40.749,0,0,1,1612.608,339.753Zm-31.053.812a41.988,41.988,0,0,0,.244,5.166,13.04,13.04,0,0,0,1.552,4.8,8.8,8.8,0,0,0,1.69,2.28,6.61,6.61,0,0,0,1.991,1.29,8.272,8.272,0,0,0,2.363.551c.856.078,1.785.117,2.781.117a4.338,4.338,0,0,0,2.691-.717,4.874,4.874,0,0,0,1.479-2.414c.134-.367.272-.723.429-1.057s.3-.689.456-1.062c.194-.517.395-1.034.6-1.546s.383-1.04.539-1.579a21.242,21.242,0,0,0,.751-4.1,27.272,27.272,0,0,0,.011-4.093,27.9,27.9,0,0,0-.584-4.054c-.294-1.346-.634-2.686-1.028-4.009a9.7,9.7,0,0,0-.912-2.23,4.588,4.588,0,0,0-2.931-2.252,8.967,8.967,0,0,0-2.214-.245h-.378a2.828,2.828,0,0,0-.405.033,25.082,25.082,0,0,0-2.525.178,6.055,6.055,0,0,0-2.007.606,4.811,4.811,0,0,0-1.562,1.335,8.432,8.432,0,0,0-1.207,2.38,39.037,39.037,0,0,0-1.429,5.311A22.027,22.027,0,0,0,1581.556,340.565Z" transform="translate(-1505.964 -314.333)"/>
  <path id="Tracé_33" data-name="Tracé 33" d="M1654.066,363.971a2.42,2.42,0,0,0-.39.178.722.722,0,0,1-.361.117q-2.7-.033-5.355-.033t-5.36-.161a3.515,3.515,0,0,1-1.612-.539,3.072,3.072,0,0,1-1.19-1.385q-.593-1.368-1.174-2.669c-.389-.873-.807-1.752-1.24-2.642-.606-1.279-1.218-2.552-1.824-3.809s-1.229-2.536-1.856-3.815a1.368,1.368,0,0,0-1-.828c-.423-.078-.839-.139-1.251-.184-1.63-.106-3.242-.206-4.838-.289s-3.209-.178-4.839-.261q-3.36-.167-6.711-.345t-6.746-.306h-.522c-.763,0-1.519.028-2.264.094s-1.507.122-2.269.161l-5.617.2q-2.786.092-5.655.195l-1.106.061c-.373.022-.773.055-1.207.1a29.769,29.769,0,0,1,.229,3.715c0,1.279.011,2.564.033,3.843s.089,2.558.194,3.832a18.816,18.816,0,0,0,.685,3.665,5.742,5.742,0,0,1-1.352,1.14,3.567,3.567,0,0,1-1.746.361q-1.334-.133-2.619-.2c-.856-.039-1.735-.083-2.625-.128q-.65-.034-1.3-.1c-.435-.039-.868-.061-1.308-.061a9.7,9.7,0,0,1-1.284-.067,1.115,1.115,0,0,1-.7-.311,1.318,1.318,0,0,1-.294-.734,10.415,10.415,0,0,1-.062-1.335q0-9.059-.017-18t-.117-18q0-.717-.05-1.552c-.033-.551-.062-1.118-.095-1.69s-.066-1.14-.1-1.7-.062-1.068-.084-1.546l-.061-.8a4.7,4.7,0,0,1,0-.8,2.579,2.579,0,0,1,.455-1.451,2.025,2.025,0,0,1,1.4-.473c.194-.022.956-.044,2.28-.067s3.024-.044,5.1-.067,4.443-.044,7.1-.078,5.416-.067,8.264-.1l8.536-.094q4.263-.05,8-.083t6.617-.05q2.878-.017,4.382-.017h.635a2.27,2.27,0,0,1,.438.033,31.87,31.87,0,0,1,6.829.879,20.375,20.375,0,0,1,6.4,2.8,26.374,26.374,0,0,1,3.909,3.164,12.526,12.526,0,0,1,2.8,4.265c.351.806.685,1.6,1.013,2.38a15.416,15.416,0,0,1,.778,2.441,11.357,11.357,0,0,1-3.059,11.111c-.439.456-.895.9-1.373,1.34s-.962.845-1.463,1.235a1.532,1.532,0,0,0-.59.817,1.65,1.65,0,0,0,.1.945q.65,1.819,1.317,3.648c.445,1.218.935,2.408,1.469,3.581s1.112,2.319,1.74,3.442a28.229,28.229,0,0,0,2.152,3.242,9.523,9.523,0,0,0,.634.812,7.48,7.48,0,0,1,.623.828,5.157,5.157,0,0,1,.456.945A2.817,2.817,0,0,1,1654.066,363.971Zm-63.93-25.9h2.413q2.12,0,5.456.017c2.23.011,4.654.028,7.284.05s5.361.039,8.192.05,5.566.017,8.2.017q3.028,0,5.717-.017t4.761-.067q2.068-.05,3.4-.117a6.161,6.161,0,0,0,1.63-.195,7.549,7.549,0,0,0,1.679-1,3.3,3.3,0,0,0,1.124-1.385,6.458,6.458,0,0,0,.439-2.313c.011-.823.027-1.646.05-2.475a1.971,1.971,0,0,0-.161-.879,1.227,1.227,0,0,0-.489-.651,4.868,4.868,0,0,0-1.156-1.157,7.744,7.744,0,0,0-1.368-.784,7.248,7.248,0,0,0-1.4-.456c-.468-.1-.879-.167-1.224-.211-.411-.067-1.279-.117-2.592-.161s-2.919-.089-4.821-.133-4.016-.078-6.34-.111-4.7-.067-7.151-.1-4.86-.056-7.251-.067-4.6-.011-6.646-.011c-2.347,0-4.326.005-5.945.028s-2.636.055-3.047.1q-.2,3.061-.39,6.045C1590.365,334.075,1590.248,336.071,1590.136,338.068Z" transform="translate(-1467.917 -314.867)"/>
  <path id="Tracé_34" data-name="Tracé 34" d="M1632.852,363.472a4.8,4.8,0,0,1-1.68.717,8.748,8.748,0,0,1-1.646.161c-.256,0-.512-.006-.763-.017s-.494-.017-.733-.017h-.295c-1.018,0-2.024-.039-3.014-.111s-1.991-.161-3.014-.245a6,6,0,0,1-2.2-.573,2.982,2.982,0,0,1-1.418-1.9,9.479,9.479,0,0,0-1.09-2.235c-.468-.706-.917-1.418-1.357-2.135q-1.134-1.985-2.312-3.959c-.778-1.312-1.585-2.63-2.408-3.954a12.515,12.515,0,0,0-.751-1.046c-.262-.328-.489-.617-.684-.879-.629.562-1.24,1.1-1.824,1.613s-1.151,1.034-1.7,1.579a3.923,3.923,0,0,0-1.023,1.679,6,6,0,0,0-.244,1.969c.039.7.062,1.379.062,2.052a16.179,16.179,0,0,1-.129,2.058c-.111,1-.256,1.98-.439,2.947s-.367,1.93-.539,2.881a14.594,14.594,0,0,1-3.259.295c-.7,0-1.429-.028-2.2-.078s-1.535-.139-2.28-.245-1.484-.239-2.2-.395a19.8,19.8,0,0,1-1.985-.517c.039-1.023.089-2.057.145-3.1s.105-2.085.146-3.131q.032-1.593.033-3.159c0-1.04-.022-2.085-.067-3.125-.039-1.785-.095-3.559-.161-5.333s-.117-3.542-.161-5.328q-.067-1.752-.067-3.531t.1-3.57c.084-1.735.206-3.47.356-5.194s.294-3.459.423-5.2c.089-1.084.166-2.174.227-3.259s.146-2.213.229-3.387l4.5-.489c.584-.067,1.174-.139,1.757-.211s1.174-.139,1.764-.183c.172-.017.35-.028.539-.028h.534a6.229,6.229,0,0,1,1.745.245,4.323,4.323,0,0,1,1.741,1.057q-.359,4.663-.75,9.565t-.779,10.115q1.852-2.477,3.5-4.738t3.336-4.482a51.737,51.737,0,0,1,3.521-4.1,27.372,27.372,0,0,0,2.052-2.514,14.48,14.48,0,0,0,1.6-2.831,2.543,2.543,0,0,1,.718-1.029,1.889,1.889,0,0,1,1.141-.406c1.262-.045,2.519-.122,3.781-.228s2.529-.161,3.81-.161a23.045,23.045,0,0,1,3.063.195c1,.128,2.014.278,3.03.456a7.727,7.727,0,0,0-.355.973,1.859,1.859,0,0,1-.395.751q-2.145,2.411-4.266,4.76t-4.271,4.721c-.282.306-.544.623-.795.945s-.494.673-.733,1.045c-.829,1.173-1.63,2.347-2.414,3.52s-1.606,2.33-2.475,3.487a2.415,2.415,0,0,0-.539,1.184,1.887,1.887,0,0,0,.439,1.223c.59.829,1.162,1.652,1.729,2.475s1.106,1.674,1.629,2.541q1.2,1.96,2.33,3.959c.751,1.34,1.523,2.658,2.33,3.959q1.4,2.286,2.854,4.5t2.847,4.466a9.875,9.875,0,0,1,.734,1.429Q1632.494,362.721,1632.852,363.472Z" transform="translate(-1401.28 -314.758)"/>
  <path id="Tracé_35" data-name="Tracé 35" d="M1632.354,330.9c-.845.067-1.7.133-2.558.211s-1.719.156-2.592.245a.538.538,0,0,1-.228.033,1.44,1.44,0,0,1-1.141-.439,3.213,3.213,0,0,1-.616-1.062,6.956,6.956,0,0,0-2.509-3.615,7.1,7.1,0,0,0-4.237-1.24,6.269,6.269,0,0,0-1.562.183,3.048,3.048,0,0,0-2.085,1.546,2.651,2.651,0,0,0-.424,1.24,5.2,5.2,0,0,0,.257,1.807,6.517,6.517,0,0,0,.834,1.674,6.446,6.446,0,0,0,1.3,1.4,5.784,5.784,0,0,0,1.646.945c1.284.478,2.563.929,3.849,1.357s2.552.884,3.809,1.385c.845.345,1.685.7,2.509,1.057a24.467,24.467,0,0,1,2.413,1.207,18.761,18.761,0,0,1,2.229,1.5,11.876,11.876,0,0,1,1.941,1.941,15.15,15.15,0,0,1,3.03,5.978,12.265,12.265,0,0,1-.395,6.7c-.3.89-.584,1.78-.846,2.658a6.491,6.491,0,0,1-1.4,2.458,12.226,12.226,0,0,1-2.9,2.414,13.77,13.77,0,0,1-3.426,1.435q-1.917.551-3.858.912c-1.291.239-2.592.478-3.893.717a1.387,1.387,0,0,1-.39.061h-.4c-.283,0-.562-.011-.845-.033s-.556-.05-.817-.094c-.974-.134-1.958-.261-2.947-.395s-1.964-.289-2.931-.484a23.9,23.9,0,0,1-2.853-.767,16.13,16.13,0,0,1-2.736-1.223c-.567-.322-1.14-.667-1.729-1.023a4.691,4.691,0,0,1-1.4-1.29,41.115,41.115,0,0,1-2.786-4.543,22.193,22.193,0,0,1-1.869-4.971,2.848,2.848,0,0,1,.078-1.874,2.1,2.1,0,0,1,1.485-.99,14.74,14.74,0,0,1,2.163-.428,19.094,19.094,0,0,1,2.169-.128,22.645,22.645,0,0,1,2.691.161c.879.111,1.773.25,2.687.423a1.1,1.1,0,0,1,.795.506,1.415,1.415,0,0,1,.183.929,4.242,4.242,0,0,0,.584,2.525,7.078,7.078,0,0,0,1.791,2.007,9.5,9.5,0,0,0,2.43,1.335,7.147,7.147,0,0,0,2.492.489,8.8,8.8,0,0,0,3.191-.573,4.141,4.141,0,0,0,2.286-2.2,3.12,3.12,0,0,0-.428-3.648,8.028,8.028,0,0,0-2.313-1.974,20.6,20.6,0,0,0-2.736-1.285q-2.379-.951-4.755-1.857t-4.727-2.024a20.089,20.089,0,0,1-3.564-2.13,13.306,13.306,0,0,1-2.92-3.014,15.883,15.883,0,0,1-1.891-3.715,12.922,12.922,0,0,1-.734-3.959,12.622,12.622,0,0,1,.557-3.976,12.181,12.181,0,0,1,1.94-3.765,7.426,7.426,0,0,1,1.69-1.629q.951-.65,1.991-1.3a14.672,14.672,0,0,1,2.541-1.351,24.31,24.31,0,0,1,2.636-.929q1.343-.392,2.725-.656l2.754-.517c.694-.111,1.384-.2,2.068-.261s1.373-.1,2.068-.1a23,23,0,0,1,4.627.473,16.394,16.394,0,0,1,4.271,1.518,12.727,12.727,0,0,1,3.515,2.719,11.313,11.313,0,0,1,2.347,4.054,21.086,21.086,0,0,1,.734,2.725c.184.923.356,1.841.506,2.753a1.628,1.628,0,0,1-.245,1.4,1.921,1.921,0,0,1-1.351.517q-.359.033-.734.05t-.734.017c-.367,0-.75-.006-1.14-.017s-.773-.017-1.141-.017Z" transform="translate(-1364.386 -314.867)"/>
</svg>
