<?xml version="1.0" encoding="utf-8"?>
<!-- Generator: Adobe Illustrator 25.2.1, SVG Export Plug-In . SVG Version: 6.00 Build 0)  -->
<svg version="1.1" id="Calque_1" xmlns="http://www.w3.org/2000/svg" xmlns:xlink="http://www.w3.org/1999/xlink" x="0px" y="0px"
	 viewBox="0 0 125.86 121.89" style="enable-background:new 0 0 125.86 121.89;" xml:space="preserve">
<style type="text/css">
	.st0{fill:#D1D700;stroke:#010202;stroke-miterlimit:10;}
	.st1{fill:none;stroke:#010202;stroke-width:1.4195;stroke-miterlimit:10;}
	.st2{fill:#D1D700;}
	.st3{clip-path:url(#SVGID_2_);}
	.st4{fill:#E72174;stroke:#010202;stroke-miterlimit:10;}
	.st5{fill:none;stroke:#010202;stroke-miterlimit:10;}
	.st6{fill:#E72174;}
</style>
<g>
	<g>
		<path class="st0" d="M47.04,112.46c28.45,10.56,60.08-3.94,70.64-32.39c10.56-28.45-3.94-60.08-32.39-70.64
			C56.84-1.13,25.21,13.37,14.65,41.82C4.09,70.27,18.59,101.9,47.04,112.46z"/>
		<path class="st1" d="M62.62,36.41L55.64,54.2"/>
		<path class="st1" d="M85.19,44.79l-6.98,17.79"/>
		<path class="st2" d="M94.57,73.92c-5.99,16.12-23.92,24.35-40.04,18.36C38.41,86.3,30.18,68.37,36.17,52.24"/>
		<path class="st1" d="M94.57,73.92c-5.99,16.12-23.92,24.35-40.04,18.36C38.41,86.3,30.18,68.37,36.17,52.24"/>
	</g>
</g>
</svg>
