<?xml version="1.0" encoding="utf-8"?>
<!-- Generator: Adobe Illustrator 25.2.1, SVG Export Plug-In . SVG Version: 6.00 Build 0)  -->
<svg version="1.1" id="Calque_1" xmlns="http://www.w3.org/2000/svg" xmlns:xlink="http://www.w3.org/1999/xlink" x="0px" y="0px"
	 viewBox="0 0 125.86 121.89" style="enable-background:new 0 0 125.86 121.89;" xml:space="preserve">
<style type="text/css">
	.st0{fill:#D1D700;stroke:#010202;stroke-miterlimit:10;}
	.st1{fill:none;stroke:#010202;stroke-width:1.4195;stroke-miterlimit:10;}
	.st2{fill:#D1D700;}
	.st3{clip-path:url(#SVGID_2_);}
	.st4{fill:#E72174;stroke:#010202;stroke-miterlimit:10;}
	.st5{fill:none;stroke:#010202;stroke-miterlimit:10;}
	.st6{fill:#E72174;}
</style>
<g>
	<defs>
		
			<rect id="SVGID_1_" x="8.24" y="4.86" transform="matrix(0.8173 -0.5763 0.5763 0.8173 -23.1167 47.7221)" width="110.9" height="110.9"/>
	</defs>
	<clipPath id="SVGID_2_">
		<use xlink:href="#SVGID_1_"  style="overflow:visible;"/>
	</clipPath>
	<g class="st3">
		<path class="st4" d="M95.35,105.22c24.8-17.49,30.73-51.77,13.24-76.57C91.11,3.84,56.83-2.09,32.02,15.4
			C7.22,32.89,1.29,67.17,18.78,91.98C36.27,116.78,70.55,122.71,95.35,105.22z"/>
		<path class="st5" d="M41.45,49.35l10.73,15.82"/>
		<path class="st5" d="M61.12,35.48L71.85,51.3"/>
		<path class="st6" d="M90.46,44.22c9.91,14.06,6.55,33.5-7.51,43.41c-14.06,9.91-33.49,6.56-43.41-7.51"/>
		<path class="st5" d="M90.46,44.22c9.91,14.06,6.55,33.5-7.51,43.41c-14.06,9.91-33.49,6.56-43.41-7.51"/>
	</g>
</g>
<g>
	<g>
		<path class="st4" d="M95.35,105.22c24.8-17.49,30.73-51.77,13.24-76.57C91.11,3.84,56.83-2.09,32.02,15.4
			C7.22,32.89,1.29,67.17,18.78,91.98C36.27,116.78,70.55,122.71,95.35,105.22z"/>
		<path class="st5" d="M41.45,49.35l10.73,15.82"/>
		<path class="st5" d="M61.12,35.48L71.85,51.3"/>
		<path class="st6" d="M90.46,44.22c9.91,14.06,6.55,33.5-7.51,43.41c-14.06,9.91-33.49,6.56-43.41-7.51"/>
		<path class="st5" d="M90.46,44.22c9.91,14.06,6.55,33.5-7.51,43.41c-14.06,9.91-33.49,6.56-43.41-7.51"/>
	</g>
</g>
</svg>
